<?xml version="1.0" encoding="utf-8"?>
<!-- Generator: Adobe Illustrator 24.0.1, SVG Export Plug-In . SVG Version: 6.00 Build 0)  -->
<svg version="1.1" id="Layer_1" xmlns="http://www.w3.org/2000/svg" xmlns:xlink="http://www.w3.org/1999/xlink" x="0px" y="0px"
	 viewBox="0 0 24 24" style="enable-background:new 0 0 24 24;" xml:space="preserve">
<style type="text/css">
	.st0{display:none;}
	.st1{display:inline;fill:#7AA941;}
	.st2{display:inline;}
	.st3{fill-rule:evenodd;clip-rule:evenodd;fill:#EE2B31;}
	.st4{fill:#EE2B31;}
	.st5{display:none;fill:#0A131B;}
	.st6{display:inline;fill:#FBCF3A;}
	.st7{fill:none;}
	.st8{fill:#EF4129;}
</style>
<g id="SVGRepo_iconCarrier_1_" class="st0">
	<path class="st1" d="M12,0c6.63,0,12,5.37,12,12s-5.37,12-12,12S0,18.64,0,12S5.37,0,12,0z M10.52,14.38l-2.67-2.67
		c-0.4-0.4-1.06-0.4-1.46,0c-0.4,0.4-0.4,1.06,0,1.46l3.4,3.4c0.4,0.4,1.04,0.4,1.45,0l0,0l7.03-7.03c0.4-0.4,0.42-1.04,0.01-1.46
		c-0.4-0.4-1.04-0.42-1.46-0.01l-0.01,0.01C16.82,8.06,10.52,14.38,10.52,14.38z"/>
</g>
<g id="SVGRepo_iconCarrier" class="st0">
	<title>1048</title>
	<g class="st2">
		<path class="st3" d="M20.48,3.52C15.79-1.17,8.19-1.18,3.51,3.51c-4.68,4.69-4.68,12.28,0.01,16.97
			c4.69,4.69,12.29,4.7,16.97,0.02C25.17,15.81,25.17,8.21,20.48,3.52L20.48,3.52z M14.43,17.05l-2.55-2.55l-2.55,2.55
			c-1.04,1.04-1.82,1.95-3.06,0.71c-1.24-1.24-0.34-2.02,0.71-3.06l2.55-2.55L6.98,9.59C5.93,8.55,5.03,7.77,6.27,6.53
			c1.24-1.24,2.02-0.33,3.06,0.71l2.55,2.55l2.55-2.55c1.04-1.04,1.82-1.95,3.06-0.71c1.24,1.24,0.34,2.02-0.71,3.06l-2.55,2.55
			l2.55,2.55c1.04,1.04,1.95,1.83,0.71,3.07C16.26,18.99,15.47,18.09,14.43,17.05L14.43,17.05z"/>
	</g>
</g>
<g id="SVGRepo_iconCarrier_2_" class="st0">
	<title>ic_fluent_error_circle_24_filled</title>
	<desc>Created with Sketch.</desc>
	<g id="_xD83D__xDD0D_-System-Icons" class="st2">
		<g id="ic_fluent_error_circle_24_filled">
			<path id="_xD83C__xDFA8_-Color" class="st4" d="M12,0c6.63,0,12,5.37,12,12s-5.37,12-12,12S0,18.62,0,12S5.38,0,12,0z M12,15.6
				c-0.66,0-1.2,0.54-1.2,1.2S11.34,18,12,18s1.2-0.54,1.2-1.2S12.67,15.6,12,15.6z M12,6c-0.62,0-1.12,0.46-1.19,1.06L10.8,7.2l0,6
				l0.01,0.14c0.07,0.6,0.58,1.06,1.19,1.06c0.62,0,1.12-0.46,1.19-1.06l0.01-0.14l0-6l-0.01-0.14C13.12,6.46,12.62,6,12,6z"/>
		</g>
	</g>
</g>
<ellipse class="st5" cx="12.53" cy="12.52" rx="6.93" ry="8.09"/>
<g id="SVGRepo_iconCarrier_3_" class="st0">
	<path class="st6" d="M12,24c6.55,0,12-5.44,12-12c0-6.55-5.46-12-12.01-12C5.42,0,0,5.45,0,12C0,18.56,5.44,24,12,24z M11.78,14.55
		c-0.65,0-0.99-0.33-0.99-0.96v-0.16c0-1.21,0.65-1.87,1.54-2.48c1.09-0.74,1.6-1.16,1.6-2.01c0-0.93-0.73-1.56-1.86-1.56
		c-0.81,0-1.44,0.41-1.81,1.08c-0.4,0.47-0.52,0.84-1.22,0.84c-0.4,0-0.85-0.29-0.85-0.85c0-0.21,0.05-0.41,0.11-0.61
		c0.32-1.14,1.74-2.13,3.86-2.13c2.11,0,3.93,1.09,3.93,3.14c0,1.48-0.86,2.19-2.06,3c-0.85,0.58-1.27,1-1.27,1.69v0.15
		C12.75,14.16,12.39,14.55,11.78,14.55z M11.81,18.09c-0.67,0-1.32-0.54-1.32-1.27c0-0.73,0.64-1.27,1.32-1.27
		c0.69,0,1.32,0.53,1.32,1.27C13.13,17.56,12.49,18.09,11.81,18.09z"/>
</g>
<g id="SVGRepo_iconCarrier_4_">
	<title>expire</title>
	<g id="Layer_2_1_">
		<g id="invisible_box">
			<rect class="st7" width="24" height="24"/>
		</g>
		<g id="Q3_icons">
			<g>
				<path class="st8" d="M7.1,15.95L7.1,15.95c0.29-0.47,0.15-1.08-0.31-1.38c-0.04-0.03-0.09-0.05-0.14-0.07
					c-2.42-1.01-3.89-3.49-3.6-6.1C3.32,5.54,5.59,3.27,8.45,3c2.24-0.18,4.4,0.9,5.6,2.8c0.26,0.36,0.71,0.54,1.15,0.45l0,0
					c0.53-0.16,0.83-0.72,0.67-1.25c-0.03-0.09-0.07-0.17-0.12-0.25c-1.59-2.56-4.5-4-7.5-3.7C3.85,1.48,0.64,5.4,1.07,9.8
					c0.28,2.89,2.11,5.4,4.78,6.55C6.31,16.55,6.84,16.38,7.1,15.95z"/>
				<path class="st8" d="M8.25,5.75v2.5h-2.5c-0.55,0-1,0.45-1,1s0.45,1,1,1h4.5v-4.5c0-0.55-0.45-1-1-1S8.25,5.2,8.25,5.75z"/>
				<path class="st8" d="M22.85,21.5l-7.5-13c-0.29-0.47-0.91-0.61-1.38-0.32c-0.13,0.08-0.24,0.19-0.32,0.32l-7.5,13
					c-0.28,0.48-0.11,1.09,0.37,1.37C6.66,22.95,6.83,23,7,23h15c0.55-0.01,0.99-0.46,0.98-1.02C22.98,21.81,22.94,21.65,22.85,21.5
					z M14.5,21c-0.55,0-1-0.45-1-1s0.45-1,1-1s1,0.45,1,1S15.05,21,14.5,21z M15.5,17c0,0.55-0.45,1-1,1s-1-0.45-1-1v-4
					c0-0.55,0.45-1,1-1s1,0.45,1,1V17z"/>
			</g>
		</g>
	</g>
</g>
</svg>
