<svg width="66" height="65" viewBox="0 0 66 65" fill="none" xmlns="http://www.w3.org/2000/svg">
<path d="M65.0834 32.4974C65.0834 50.2165 50.7192 64.5807 33 64.5807C15.2809 64.5807 0.916687 50.2165 0.916687 32.4974C0.916687 14.7783 15.2809 0.414062 33 0.414062C50.7192 0.414062 65.0834 14.7783 65.0834 32.4974Z" fill="white"/>
<path d="M57.6796 32.4998C57.6796 46.1299 46.6303 57.1793 33.0002 57.1793C19.3701 57.1793 8.32068 46.1299 8.32068 32.4998C8.32068 18.8697 19.3701 7.82031 33.0002 7.82031C46.6303 7.82031 57.6796 18.8697 57.6796 32.4998Z" fill="#F5222D"/>
<path fill-rule="evenodd" clip-rule="evenodd" d="M33 61.3724C48.9472 61.3724 61.875 48.4446 61.875 32.4974C61.875 16.5502 48.9472 3.6224 33 3.6224C17.0528 3.6224 4.12502 16.5502 4.12502 32.4974C4.12502 48.4446 17.0528 61.3724 33 61.3724ZM33 64.5807C50.7192 64.5807 65.0834 50.2165 65.0834 32.4974C65.0834 14.7783 50.7192 0.414062 33 0.414062C15.2809 0.414062 0.916687 14.7783 0.916687 32.4974C0.916687 50.2165 15.2809 64.5807 33 64.5807Z" fill="#1B1C19"/>
<path fill-rule="evenodd" clip-rule="evenodd" d="M32.9254 37.8867C34.2884 37.8867 35.3934 36.7818 35.3934 35.4188V19.4936C35.3934 18.1306 34.2884 17.0256 32.9254 17.0256C31.5624 17.0256 30.4575 18.1306 30.4575 19.4936V35.4188C30.4575 36.7818 31.5624 37.8867 32.9254 37.8867Z" fill="white"/>
<path fill-rule="evenodd" clip-rule="evenodd" d="M30.4575 45.4914C30.4575 44.1284 31.5624 43.0234 32.9254 43.0234H32.9999C34.3629 43.0234 35.4679 44.1284 35.4679 45.4914C35.4679 46.8544 34.3629 47.9593 32.9999 47.9593H32.9254C31.5624 47.9593 30.4575 46.8544 30.4575 45.4914Z" fill="white"/>
</svg>
