<svg width="66" height="65" viewBox="0 0 66 65" fill="none" xmlns="http://www.w3.org/2000/svg">
<path d="M57.6798 32.4998C57.6798 46.1299 46.6304 57.1793 33.0003 57.1793C19.3702 57.1793 8.3208 46.1299 8.3208 32.4998C8.3208 18.8697 19.3702 7.82031 33.0003 7.82031C46.6304 7.82031 57.6798 18.8697 57.6798 32.4998Z" fill="#FACF39"/>
<path d="M29.3828 45.2752C29.3828 46.1153 29.7166 46.9211 30.3106 47.5151C30.9047 48.1092 31.7104 48.443 32.5506 48.443C33.3907 48.443 34.1965 48.1092 34.7905 47.5151C35.3846 46.9211 35.7183 46.1153 35.7183 45.2752C35.7183 44.435 35.3846 43.6293 34.7905 43.0352C34.1965 42.4412 33.3907 42.1074 32.5506 42.1074C31.7104 42.1074 30.9047 42.4412 30.3106 43.0352C29.7166 43.6293 29.3828 44.435 29.3828 45.2752Z" fill="#1B1C19"/>
<path d="M32.9891 16.2676C30.4393 16.2676 27.9939 17.2805 26.1909 19.0835C24.3879 20.8865 23.375 23.3319 23.375 25.8817C23.375 26.5191 23.6282 27.1305 24.079 27.5812C24.5297 28.032 25.1411 28.2852 25.7785 28.2852C26.416 28.2852 27.0273 28.032 27.4781 27.5812C27.9288 27.1305 28.182 26.5191 28.182 25.8817C28.1851 25.0157 28.4219 24.1667 28.8676 23.4243C29.3133 22.6818 29.9513 22.0736 30.7142 21.6638C31.477 21.254 32.3364 21.0578 33.2015 21.0961C34.0666 21.1344 34.9053 21.4056 35.629 21.8812C36.3527 22.3567 36.9344 23.019 37.3128 23.7978C37.6912 24.5767 37.8522 25.4434 37.7788 26.3062C37.7053 27.169 37.4001 27.996 36.8955 28.6997C36.3909 29.4034 35.7056 29.9578 34.9119 30.3042C33.6258 30.8654 32.5315 31.7898 31.763 32.9638C30.9946 34.1379 30.5853 35.5106 30.5856 36.9138C30.5856 37.5513 30.8388 38.1626 31.2895 38.6134C31.7403 39.0641 32.3516 39.3174 32.9891 39.3174C33.6265 39.3174 34.2379 39.0641 34.6886 38.6134C35.1394 38.1626 35.3926 37.5513 35.3926 36.9138C35.391 36.4447 35.5266 35.9854 35.7829 35.5925C36.0391 35.1996 36.4048 34.8902 36.8347 34.7026C38.8648 33.8226 40.5293 32.2692 41.5472 30.3046C42.5651 28.34 42.8742 26.0844 42.4224 23.9184C41.9705 21.7523 40.7854 19.8085 39.0669 18.4147C37.3484 17.0209 35.2017 16.2626 32.9891 16.2676Z" fill="#1B1C19"/>
<path fill-rule="evenodd" clip-rule="evenodd" d="M33.0001 61.3744C48.9473 61.3744 61.8751 48.4466 61.8751 32.4994C61.8751 16.5521 48.9473 3.62435 33.0001 3.62435C17.0529 3.62435 4.12508 16.5521 4.12508 32.4994C4.12508 48.4466 17.0529 61.3744 33.0001 61.3744ZM33.0001 64.5827C50.7192 64.5827 65.0834 50.2185 65.0834 32.4994C65.0834 14.7802 50.7192 0.416016 33.0001 0.416016C15.2809 0.416016 0.916748 14.7802 0.916748 32.4994C0.916748 50.2185 15.2809 64.5827 33.0001 64.5827Z" fill="#1B1C19"/>
</svg>
