<svg width="78" height="77" viewBox="0 0 78 77" fill="none" xmlns="http://www.w3.org/2000/svg">
<path d="M36.7207 6.16367C36.4792 6.18909 35.7293 6.27806 35.0683 6.35432C25.0143 7.49828 15.7228 13.8027 10.6131 22.9417C8.7574 26.2718 7.41007 30.4155 6.8381 34.5591C6.60931 36.148 6.60931 41.1051 6.8381 42.6939C7.86766 50.1678 11.0326 56.5485 16.2694 61.7217C21.3282 66.717 27.4166 69.7675 34.3565 70.7971C36.8224 71.153 36.6699 71.2165 36.136 70.098C35.8945 69.5768 35.6022 68.6998 35.4878 68.1278L35.2844 67.0983L34.8268 67.022C28.7893 66.0433 23.7051 63.5393 19.3326 59.4084C16.9049 57.1205 14.9729 54.4766 13.4095 51.3244C7.81681 40.0628 10.2445 26.4498 19.3835 17.7939C29.0944 8.6041 43.8386 7.30762 54.9604 14.6671C64.2646 20.819 69.1709 31.8391 67.5312 42.8846C67.3533 44.1048 66.9592 45.8207 66.4508 47.5875C66.311 48.0959 66.311 48.1086 67.4931 50.1805L68.6752 52.2777L69.0311 51.5151C69.5395 50.4093 70.5945 47.1299 70.8868 45.7445C71.5859 42.516 71.8274 38.957 71.5605 35.9573C70.8614 28.1022 67.6329 21.1495 62.1292 15.6331C57.0577 10.5742 50.9566 7.51099 43.7115 6.40517C42.4405 6.21451 37.7121 6.04927 36.7207 6.16367Z" fill="#1B1C19"/>
<path d="M36.4804 13.8556C27.9897 14.8089 20.6303 19.9439 16.8552 27.5322C11.5931 38.082 14.5038 50.9959 23.7825 58.241C27.0491 60.7831 31.5868 62.7532 35.2856 63.2362L35.9338 63.3125L36.2135 62.7659C36.9634 61.2915 48.1487 41.6409 48.6317 40.9546C50.2968 38.5777 53.4999 37.2176 56.436 37.6117C59.2578 38.0057 61.3296 39.4166 62.8549 42.0095L63.5921 43.2679L63.6811 42.823C63.7446 42.5688 63.8463 41.7807 63.9099 41.0562C64.6598 33.7604 62.0541 26.4009 56.8428 21.1387C53.055 17.3128 48.4157 14.9232 43.0772 14.0335C41.6028 13.792 37.9294 13.6903 36.4804 13.8556ZM40.0267 25.4095C40.3571 25.5747 40.6241 25.8417 40.7893 26.1721C41.0308 26.6297 41.0435 26.9093 41.0435 29.9472V33.2265L41.7172 33.5443C42.5306 33.9256 43.8017 35.1712 44.2084 35.9974C45.0855 37.815 45.0601 39.531 44.1322 41.3232C42.9628 43.5729 40.2046 44.8186 37.7896 44.1703C36.1881 43.7509 34.7009 42.5688 34.0527 41.1961L33.7476 40.5605L30.4429 40.5097C27.2906 40.4716 27.1 40.4588 26.6805 40.1919C25.5239 39.4674 25.4603 37.7769 26.5661 37.0016C26.8331 36.8109 27.3542 36.7728 30.3031 36.7219L33.7222 36.6584L34.0527 36.0228C34.4848 35.1712 35.7432 33.9256 36.5694 33.5443L37.2303 33.2265V29.9218C37.243 26.1848 37.2812 26.0069 38.1963 25.4603C38.8064 25.0917 39.3657 25.079 40.0267 25.4095Z" fill="#F5222D"/>
<path d="M38.219 36.9869C37.6724 37.2666 37.2275 38.0165 37.2275 38.6266C37.2275 39.2621 37.6724 39.9866 38.2444 40.279C38.5113 40.4188 38.918 40.5332 39.1341 40.5332C40.1001 40.5332 41.0407 39.5926 41.0407 38.6266C41.0407 37.9911 40.5958 37.2666 40.0239 36.9742C39.4011 36.6565 38.8291 36.6565 38.219 36.9869Z" fill="#F5222D"/>
<path d="M54.3883 41.4624C53.5367 41.6531 52.7105 42.1234 52.075 42.7843C51.4522 43.4198 39.5805 64.3669 39.3009 65.3075C38.7035 67.3793 39.7711 69.6926 41.7921 70.6968L42.631 71.1035H55.4052H68.1793L69.0182 70.6968C70.963 69.7308 71.9925 67.6462 71.5604 65.549C71.4333 64.9897 70.1113 62.5493 65.3067 54.0586C59.9047 44.5002 59.1421 43.191 58.5193 42.6064C57.4262 41.5641 55.8628 41.1319 54.3883 41.4624ZM56.2949 49.4319C56.6254 49.5972 56.8923 49.8641 57.0576 50.1946C57.2991 50.6522 57.3118 50.9318 57.3118 54.1603C57.3118 57.5159 57.2991 57.643 57.0194 58.126C56.2695 59.4352 54.3375 59.3716 53.702 58.0116C53.5113 57.6303 53.4859 57.1219 53.524 53.9823C53.5621 50.4996 53.5749 50.3725 53.8418 49.9912C54.4138 49.2032 55.4052 48.9744 56.2949 49.4319ZM56.4093 63.0196C57.2355 63.5916 57.5279 64.6465 57.083 65.4473C56.2314 67.0107 53.8672 66.7056 53.5494 64.977C53.2444 63.3755 55.1001 62.1044 56.4093 63.0196Z" fill="#F5222D"/>
</svg>
