<svg width="66" height="65" viewBox="0 0 66 65" fill="none" xmlns="http://www.w3.org/2000/svg">
<path d="M65.0834 32.5C65.0834 50.2191 50.7192 64.5833 33.0001 64.5833C15.2809 64.5833 0.916748 50.2191 0.916748 32.5C0.916748 14.7809 15.2809 0.416656 33.0001 0.416656C50.7192 0.416656 65.0834 14.7809 65.0834 32.5Z" fill="white"/>
<path d="M57.6798 32.5002C57.6798 46.1303 46.6304 57.1796 33.0003 57.1796C19.3702 57.1796 8.3208 46.1303 8.3208 32.5002C8.3208 18.8701 19.3702 7.82068 33.0003 7.82068C46.6304 7.82068 57.6798 18.8701 57.6798 32.5002Z" fill="#F5222D"/>
<path fill-rule="evenodd" clip-rule="evenodd" d="M33.0001 61.375C48.9473 61.375 61.8751 48.4472 61.8751 32.5C61.8751 16.5528 48.9473 3.62499 33.0001 3.62499C17.0529 3.62499 4.12508 16.5528 4.12508 32.5C4.12508 48.4472 17.0529 61.375 33.0001 61.375ZM33.0001 64.5833C50.7192 64.5833 65.0834 50.2191 65.0834 32.5C65.0834 14.7809 50.7192 0.416656 33.0001 0.416656C15.2809 0.416656 0.916748 14.7809 0.916748 32.5C0.916748 50.2191 15.2809 64.5833 33.0001 64.5833Z" fill="#253300"/>
<path d="M39.2555 20.6065C40.5085 19.3535 42.5399 19.3535 43.7928 20.6065C45.0457 21.8594 45.0457 23.8908 43.7928 25.1437L25.6437 43.2928C24.3908 44.5458 22.3594 44.5458 21.1065 43.2928C19.8535 42.0399 19.8535 40.0085 21.1065 38.7556L39.2555 20.6065Z" fill="white"/>
<path d="M21.1064 25.1437C19.8535 23.8907 19.8535 21.8593 21.1064 20.6064C22.3594 19.3535 24.3908 19.3535 25.6437 20.6064L43.7928 38.7555C45.0457 40.0084 45.0457 42.0398 43.7928 43.2927C42.5399 44.5457 40.5085 44.5457 39.2555 43.2927L21.1064 25.1437Z" fill="white"/>
</svg>
