<?xml version="1.0" encoding="utf-8"?>
<!-- Generator: Adobe Illustrator 24.0.1, SVG Export Plug-In . SVG Version: 6.00 Build 0)  -->
<svg version="1.1" id="Layer_1" xmlns="http://www.w3.org/2000/svg" xmlns:xlink="http://www.w3.org/1999/xlink" x="0px" y="0px"
	 viewBox="0 0 24 24" style="enable-background:new 0 0 24 24;" xml:space="preserve">
<style type="text/css">
	.st0{display:none;}
	.st1{display:inline;fill:#7AA941;}
	.st2{fill-rule:evenodd;clip-rule:evenodd;fill:#EE2B31;}
</style>
<g id="SVGRepo_iconCarrier_1_" class="st0">
	<path class="st1" d="M12,0c6.63,0,12,5.37,12,12s-5.37,12-12,12S0,18.64,0,12S5.37,0,12,0z M10.52,14.38l-2.67-2.67
		c-0.4-0.4-1.06-0.4-1.46,0c-0.4,0.4-0.4,1.06,0,1.46l3.4,3.4c0.4,0.4,1.04,0.4,1.45,0l0,0l7.03-7.03c0.4-0.4,0.42-1.04,0.01-1.46
		c-0.4-0.4-1.04-0.42-1.46-0.01l-0.01,0.01C16.82,8.06,10.52,14.38,10.52,14.38z"/>
</g>
<g id="SVGRepo_iconCarrier">
	<title>1048</title>
	<g>
		<path class="st2" d="M20.48,3.52C15.79-1.17,8.19-1.18,3.51,3.51c-4.68,4.69-4.68,12.28,0.01,16.97
			c4.69,4.69,12.29,4.7,16.97,0.02C25.17,15.81,25.17,8.21,20.48,3.52L20.48,3.52z M14.43,17.05l-2.55-2.55l-2.55,2.55
			c-1.04,1.04-1.82,1.95-3.06,0.71c-1.24-1.24-0.34-2.02,0.71-3.06l2.55-2.55L6.98,9.59C5.93,8.55,5.03,7.77,6.27,6.53
			c1.24-1.24,2.02-0.33,3.06,0.71l2.55,2.55l2.55-2.55c1.04-1.04,1.82-1.95,3.06-0.71c1.24,1.24,0.34,2.02-0.71,3.06l-2.55,2.55
			l2.55,2.55c1.04,1.04,1.95,1.83,0.71,3.07C16.26,18.99,15.47,18.09,14.43,17.05L14.43,17.05z"/>
	</g>
</g>
</svg>
