<svg width="66" height="65" viewBox="0 0 66 65" fill="none" xmlns="http://www.w3.org/2000/svg">
<path d="M62.6153 32.5021C62.6153 48.8582 49.3561 62.1175 33 62.1175C16.6438 62.1175 3.38458 48.8582 3.38458 32.5021C3.38458 16.146 16.6438 2.88672 33 2.88672C49.3561 2.88672 62.6153 16.146 62.6153 32.5021Z" fill="white"/>
<path d="M57.6795 32.4998C57.6795 46.1299 46.6301 57.1793 33 57.1793C19.3699 57.1793 8.32056 46.1299 8.32056 32.4998C8.32056 18.8697 19.3699 7.82031 33 7.82031C46.6301 7.82031 57.6795 18.8697 57.6795 32.4998Z" fill="#7BA800"/>
<path fill-rule="evenodd" clip-rule="evenodd" d="M33 61.3763C48.9472 61.3763 61.875 48.4485 61.875 32.5013C61.875 16.5541 48.9472 3.6263 33 3.6263C17.0528 3.6263 4.12499 16.5541 4.12499 32.5013C4.12499 48.4485 17.0528 61.3763 33 61.3763ZM33 64.5846C50.7191 64.5846 65.0833 50.2204 65.0833 32.5013C65.0833 14.7822 50.7191 0.417969 33 0.417969C15.2809 0.417969 0.916656 14.7822 0.916656 32.5013C0.916656 50.2204 15.2809 64.5846 33 64.5846Z" fill="#253300"/>
<path fill-rule="evenodd" clip-rule="evenodd" d="M41.1636 24.0078C41.9501 23.1589 43.2003 23.1589 43.9869 24.0078C44.8034 24.889 44.8034 26.3393 43.9869 27.2205L31.2215 40.9973C30.4351 41.846 29.1851 41.8461 28.3985 40.9976L22.0132 34.1092C21.1965 33.2282 21.1962 31.7778 22.0126 30.8964C22.799 30.0474 24.0492 30.0471 24.8359 30.8958L29.2665 35.6754C29.4066 35.8266 29.6034 35.9125 29.8096 35.9125C30.0157 35.9124 30.2125 35.8265 30.3526 35.6753L41.1636 24.0078Z" fill="white"/>
</svg>
