<svg width="24" height="24" viewBox="0 0 24 24" fill="none" xmlns="http://www.w3.org/2000/svg">
<path fill-rule="evenodd" clip-rule="evenodd" d="M9.24994 11.1225C8.73756 11.1225 8.32246 11.5376 8.32246 12.05C8.32246 12.5624 8.73756 12.9775 9.24994 12.9775C9.76232 12.9775 10.1774 12.5624 10.1774 12.05C10.1774 11.5378 9.76328 11.1232 9.25223 11.1225H9.24994ZM6.99994 12.05C6.99994 10.8072 8.00715 9.8 9.24994 9.8H9.25251C10.2645 9.80099 11.1193 10.4699 11.4013 11.3887H16.2612C16.6264 11.3887 16.9224 11.6848 16.9224 12.05V13.6387C16.9224 14.0039 16.6264 14.3 16.2612 14.3C15.8959 14.3 15.5999 14.0039 15.5999 13.6387V12.7113H14.4966V13.6387C14.4966 14.0039 14.2005 14.3 13.8353 14.3C13.4701 14.3 13.1741 14.0039 13.1741 13.6387V12.7113H11.4012C11.1188 13.6313 10.2626 14.3 9.24994 14.3C8.00715 14.3 6.99994 13.2928 6.99994 12.05Z" fill="#253300"/>
<path d="M11.1118 3.50964C11.0383 3.51715 10.8098 3.54343 10.6085 3.56595C9.30776 3.70861 7.78245 4.25671 6.65976 4.98125C4.37954 6.45661 2.93166 8.71282 2.55226 11.3707C2.48258 11.8325 2.48258 13.1614 2.55226 13.6232C2.93166 16.2811 4.37954 18.5373 6.65976 20.0127C7.49984 20.5533 8.74642 21.0713 9.71812 21.2815C12.1687 21.8109 14.747 21.3679 16.8027 20.0652C17.5034 19.6222 18.3319 18.939 18.4441 18.7137C18.5719 18.4472 18.4906 18.1056 18.2622 17.9592C17.9602 17.7677 17.7202 17.8128 17.3408 18.1394C16.7562 18.6349 16.6169 18.7438 16.222 18.9991C14.4373 20.1553 12.1338 20.572 10.0317 20.1178C7.6547 19.6072 5.58353 18.008 4.52278 15.8756C3.01295 12.8386 3.67883 9.24966 6.17971 6.90335C8.22379 4.98876 11.0537 4.26421 13.8024 4.95121C16.3188 5.5819 18.4403 7.45145 19.3152 9.80902C19.4507 10.1732 19.6288 10.7588 19.6288 10.8339C19.6288 10.8489 19.3191 10.5636 18.9435 10.1994C18.2041 9.48617 18.146 9.45238 17.8209 9.51245C17.6312 9.54623 17.3989 9.77148 17.364 9.95543C17.2982 10.2933 17.2789 10.2708 18.7306 11.6786C19.47 12.3956 20.1282 13.0113 20.194 13.0413C20.2637 13.0713 20.3721 13.0976 20.4379 13.0976C20.6005 13.0976 20.8444 12.9737 20.9373 12.8461C21.0534 12.6772 22.3 9.61756 22.3 9.49368C22.3 9.22713 22.0755 8.95684 21.8161 8.90804C21.4367 8.84046 21.1928 9.03192 20.9876 9.55374C20.9141 9.73769 20.8289 9.94792 20.7979 10.0192L20.7437 10.1506L20.5618 9.64384C20.3024 8.92305 20.163 8.62272 19.8533 8.09715C18.3899 5.61194 15.9084 3.96764 13.0281 3.57721C12.641 3.52466 11.3673 3.47961 11.1118 3.50964Z" fill="#253300"/>
</svg>
