<svg width="24" height="24" viewBox="0 0 24 24" fill="none" xmlns="http://www.w3.org/2000/svg">
<path fill-rule="evenodd" clip-rule="evenodd" d="M4 5.25C4 4.2835 4.7835 3.5 5.75 3.5H11.4661C11.8803 3.5 12.2161 3.83579 12.2161 4.25C12.2161 4.66421 11.8803 5 11.4661 5H5.75C5.61193 5 5.5 5.11193 5.5 5.25V19.7534C5.5 19.8914 5.61193 20.0034 5.75 20.0034H16.5897C16.7277 20.0034 16.8397 19.8914 16.8397 19.7534V12.9871C16.8397 12.5729 17.1754 12.2371 17.5897 12.2371C18.0039 12.2371 18.3397 12.5729 18.3397 12.9871V19.7534C18.3397 20.7199 17.5562 21.5034 16.5897 21.5034H5.75C4.7835 21.5034 4 20.7199 4 19.7534V5.25ZM18.9322 9.66928C19.3635 9.1272 19.6201 8.44766 19.6201 7.71C19.6201 5.93717 18.1381 4.5 16.31 4.5C14.482 4.5 13 5.93717 13 7.71C13 9.48284 14.482 10.92 16.31 10.92C16.9421 10.92 17.5328 10.7482 18.0351 10.4501L19.9726 12.3291C20.2076 12.557 20.5887 12.557 20.8237 12.3291C21.0588 12.1011 21.0588 11.7316 20.8237 11.5037L18.9322 9.66928ZM16.31 9.75273C17.4734 9.75273 18.4164 8.83817 18.4164 7.71C18.4164 6.58183 17.4734 5.66727 16.31 5.66727C15.1467 5.66727 14.2036 6.58183 14.2036 7.71C14.2036 8.83817 15.1467 9.75273 16.31 9.75273ZM7.16406 11.9988C6.83269 11.9988 6.56406 12.2674 6.56406 12.5988C6.56406 12.9301 6.83269 13.1988 7.16406 13.1988H13.0665C13.3978 13.1988 13.6665 12.9301 13.6665 12.5988C13.6665 12.2674 13.3978 11.9988 13.0665 11.9988H7.16406ZM7.16406 13.9957C6.83269 13.9957 6.56406 14.2644 6.56406 14.5957C6.56406 14.9271 6.83269 15.1957 7.16406 15.1957H11.4567C11.7881 15.1957 12.0567 14.9271 12.0567 14.5957C12.0567 14.2644 11.7881 13.9957 11.4567 13.9957H7.16406ZM6.56406 16.5927C6.56406 16.2613 6.83269 15.9927 7.16406 15.9927H8.23723C8.5686 15.9927 8.83723 16.2613 8.83723 16.5927C8.83723 16.9241 8.5686 17.1927 8.23723 17.1927H7.16406C6.83269 17.1927 6.56406 16.9241 6.56406 16.5927Z" fill="#253300"/>
</svg>
