<?xml version="1.0" encoding="utf-8"?>
<!-- Generator: Adobe Illustrator 24.0.1, SVG Export Plug-In . SVG Version: 6.00 Build 0)  -->
<svg version="1.1" id="Layer_1" xmlns="http://www.w3.org/2000/svg" xmlns:xlink="http://www.w3.org/1999/xlink" x="0px" y="0px"
	 viewBox="0 0 415 93" style="enable-background:new 0 0 415 93;" xml:space="preserve">
<style type="text/css">
	.st0{fill:#181818;}
	.st1{fill:url(#SVGID_1_);}
	.st2{fill:#AD2323;}
	.st3{opacity:0.75;fill:url(#SVGID_2_);}
	.st4{fill:#FFFFFF;}
	.st5{font-family:'CooperBlack';}
	.st6{font-size:36px;}
	.st7{fill:none;stroke:url(#SVGID_3_);stroke-width:4;stroke-miterlimit:10;}
	.st8{fill:#F7F7F7;}
</style>
<rect class="st0" width="415" height="93"/>
<g>
	<linearGradient id="SVGID_1_" gradientUnits="userSpaceOnUse" x1="38.96" y1="67.1173" x2="302.7553" y2="67.1173">
		<stop  offset="0" style="stop-color:#606060"/>
		<stop  offset="0.3116" style="stop-color:#908A90"/>
		<stop  offset="0.5531" style="stop-color:#BDBDBD"/>
		<stop  offset="0.82" style="stop-color:#807B82"/>
		<stop  offset="1" style="stop-color:#A3A3A3"/>
	</linearGradient>
	<path class="st1" d="M123.28,68.47c0,0-54.35-3.65-84.32,20.73c0,0,16.76-20.09,59.93-24.38c18.69-7.41,37.7-16.43,59.72-19.01
		c22.02-2.58,59.83,1.5,82.38,8.06c0,0-39.53,11.6-60.69,10.63c15.51-0.87,35.12-9.77,35.12-9.77c-25.56-6.77-42.86-7.41-61.33-3.97
		c-18.47,3.44-47.69,14.39-47.69,14.39C110.17,66.43,123.28,68.47,123.28,68.47z M293.41,62.67c0,0,7.3-1.18,9.34-4.3
		c-9.24,2.47-41.89,0.54-52.01-2.26c-13.99,7.09-49.93,12.61-78.6,15.25c68.85-4.26,115.49-24.49,129.39,15.9
		C304.07,72.88,293.41,62.67,293.41,62.67z"/>
	<path class="st2" d="M74.55,85.23C79.16,79.05,87.71,74.9,97.5,74.9c9.86,0,18.46,4.21,23.05,10.47h-6.2
		c-4.29-5.06-11.62-8.4-19.95-8.4C86.13,76.96,78.85,80.24,74.55,85.23z"/>
	<path class="st2" d="M228.95,82.03c5-6.18,14.29-10.33,24.92-10.33c10.71,0,20.05,4.21,25.02,10.47h-6.73
		c-4.65-5.06-12.62-8.4-21.67-8.4C241.53,73.76,233.62,77.04,228.95,82.03z"/>
</g>
<linearGradient id="SVGID_2_" gradientUnits="userSpaceOnUse" x1="257.64" y1="46.5" x2="402.36" y2="46.5">
	<stop  offset="0" style="stop-color:#606060"/>
	<stop  offset="0.3116" style="stop-color:#908A90"/>
	<stop  offset="0.5531" style="stop-color:#BDBDBD"/>
	<stop  offset="0.82" style="stop-color:#807B82"/>
	<stop  offset="1" style="stop-color:#A3A3A3"/>
</linearGradient>
<path class="st3" d="M402.36,93H257.64V12c0-6.6,5.4-12,12-12h120.72c6.6,0,12,5.4,12,12V93z"/>
<text transform="matrix(0.7298 0 0 1 264.4805 76.9297)" class="st4 st5 st6">__________</text>
<linearGradient id="SVGID_3_" gradientUnits="userSpaceOnUse" x1="255.64" y1="49.5" x2="404.36" y2="49.5">
	<stop  offset="0" style="stop-color:#606060"/>
	<stop  offset="0.3116" style="stop-color:#908A90"/>
	<stop  offset="0.5531" style="stop-color:#BDBDBD"/>
	<stop  offset="0.82" style="stop-color:#807B82"/>
	<stop  offset="1" style="stop-color:#A3A3A3"/>
</linearGradient>
<path class="st7" d="M402.36,96.84H257.64V14.16c0-6.6,5.4-12,12-12h120.72c6.6,0,12,5.4,12,12V96.84z"/>
<g>
	<g>
		<path class="st8" d="M25.74,27.75l-3.94,7.49h-3.18l12.77-23.81h3.71l3.45,23.81h-3.29l-1.07-7.49H25.74z M34.02,25.35l-0.99-6.85
			c-0.22-1.55-0.3-2.97-0.38-4.34h-0.07c-0.63,1.41-1.3,2.86-2.05,4.31l-3.68,6.89H34.02z"/>
		<path class="st8" d="M56.73,30.58c-0.35,1.77-0.62,3.32-0.77,4.66H53.2l0.37-2.79H53.5c-1.08,1.38-3.24,3.18-6.28,3.18
			c-2.68,0-5.61-1.48-4.43-7.49l1.96-10h3.11l-1.86,9.47c-0.64,3.25-0.08,5.44,2.75,5.44c2.08,0,3.82-1.45,4.65-2.83
			c0.27-0.46,0.48-1.02,0.59-1.59l2.06-10.49h3.11L56.73,30.58z"/>
		<path class="st8" d="M69.04,13.23l-0.96,4.91h4.45l-0.46,2.37h-4.45l-1.81,9.22c-0.42,2.12-0.05,3.32,1.68,3.32
			c0.81,0,1.43-0.11,1.84-0.21l-0.32,2.33c-0.65,0.25-1.64,0.42-2.84,0.42c-1.45,0-2.52-0.46-3.1-1.31
			c-0.7-0.92-0.72-2.44-0.33-4.45l1.83-9.32h-2.65l0.46-2.37h2.65l0.81-4.1L69.04,13.23z"/>
		<path class="st8" d="M89.63,26.55c-1.24,6.32-6.16,9.08-10.3,9.08c-4.63,0-7.53-3.39-6.47-8.79c1.12-5.72,5.53-9.08,10.26-9.08
			C88.04,17.76,90.66,21.32,89.63,26.55z M76.03,26.73c-0.74,3.74,0.86,6.57,3.9,6.57c2.97,0,5.74-2.79,6.5-6.64
			c0.57-2.9-0.16-6.57-3.83-6.57C78.93,20.09,76.67,23.48,76.03,26.73z"/>
		<path class="st8" d="M92.05,32.06c0.8,0.6,2.3,1.24,3.85,1.24c2.26,0,3.54-1.13,3.82-2.54c0.29-1.48-0.43-2.3-2.56-3.14
			c-2.86-1.09-3.97-2.79-3.57-4.84c0.54-2.75,3.21-5.01,6.88-5.01c1.73,0,3.15,0.49,4,1.06l-1.22,2.26
			c-0.59-0.42-1.71-0.99-3.3-0.99c-1.84,0-3.07,1.06-3.32,2.33c-0.28,1.41,0.62,2.05,2.68,2.9c2.75,1.13,3.97,2.61,3.47,5.16
			c-0.59,3-3.34,5.12-7.4,5.12c-1.87,0-3.51-0.46-4.57-1.17L92.05,32.06z"/>
		<path class="st8" d="M109.14,27.26c-0.76,4.2,1.59,5.93,4.7,5.93c2.22,0,3.64-0.39,4.91-0.88l0.09,2.22
			c-1.19,0.49-3.18,1.06-5.9,1.06c-5.26,0-7.73-3.46-6.71-8.62c1.01-5.16,4.85-9.22,9.83-9.22c5.58,0,6.1,4.91,5.48,8.05
			c-0.13,0.63-0.29,1.13-0.39,1.45H109.14z M118.69,25.03c0.42-1.98,0.18-5.05-3.32-5.05c-3.14,0-5.09,2.9-5.76,5.05H118.69z"/>
		<path class="st8" d="M125.85,23.48c0.4-2.01,0.7-3.74,0.91-5.33h2.72l-0.55,3.36h0.14c1.23-2.3,3.38-3.74,5.47-3.74
			c0.35,0,0.59,0.03,0.86,0.11l-0.58,2.93c-0.3-0.07-0.61-0.11-1.04-0.11c-2.19,0-4.07,1.66-4.95,3.99
			c-0.15,0.42-0.32,0.92-0.43,1.45l-1.79,9.11h-3.07L125.85,23.48z"/>
		<path class="st8" d="M140.53,18.14l1.47,9.61c0.26,1.55,0.44,2.97,0.52,4.38h0.11c0.67-1.41,1.44-2.83,2.31-4.38l5.21-9.61h3.25
			l-10.07,17.09h-2.97l-3.14-17.09H140.53z"/>
		<path class="st8" d="M152.96,35.24l3.36-17.09h3.11l-3.36,17.09H152.96z M160.72,13.34c-0.17,1.06-1.12,1.91-2.35,1.91
			c-1.1,0-1.71-0.85-1.5-1.91c0.22-1.09,1.19-1.94,2.32-1.94C160.36,11.4,160.94,12.24,160.72,13.34z"/>
		<path class="st8" d="M173.54,34.6c-0.9,0.42-2.81,0.99-5.1,0.99c-5.16,0-7.83-3.5-6.8-8.72c1.03-5.26,5.39-9.08,10.97-9.08
			c1.84,0,3.37,0.46,4.14,0.88l-1.18,2.4c-0.66-0.42-1.75-0.81-3.44-0.81c-3.92,0-6.61,2.9-7.31,6.46
			c-0.78,3.96,1.29,6.39,4.68,6.39c1.77,0,3.02-0.46,3.98-0.85L173.54,34.6z"/>
		<path class="st8" d="M180.14,27.26c-0.76,4.2,1.59,5.93,4.7,5.93c2.23,0,3.64-0.39,4.91-0.88l0.09,2.22
			c-1.19,0.49-3.18,1.06-5.9,1.06c-5.26,0-7.73-3.46-6.71-8.62c1.01-5.16,4.85-9.22,9.83-9.22c5.58,0,6.1,4.91,5.48,8.05
			c-0.13,0.63-0.29,1.13-0.39,1.45H180.14z M189.69,25.03c0.42-1.98,0.18-5.05-3.32-5.05c-3.14,0-5.09,2.9-5.76,5.05H189.69z"/>
		<path class="st2" d="M199.26,11.72c1.53-0.25,3.52-0.46,5.99-0.46c3.04,0,5.12,0.71,6.29,1.98c1.08,1.13,1.52,2.86,1.11,4.98
			c-0.42,2.15-1.39,3.85-2.84,5.09c-1.96,1.73-4.79,2.61-7.79,2.61c-0.92,0-1.76-0.04-2.43-0.21l-1.87,9.54h-3.07L199.26,11.72z
			 M200.08,23.19c0.64,0.18,1.47,0.25,2.49,0.25c3.71,0,6.32-1.8,6.97-5.09c0.62-3.14-1.31-4.66-4.7-4.66
			c-1.34,0-2.39,0.11-2.94,0.25L200.08,23.19z"/>
		<path class="st2" d="M215.08,23.48c0.4-2.01,0.7-3.74,0.91-5.33h2.72l-0.55,3.36h0.14c1.23-2.3,3.38-3.74,5.47-3.74
			c0.35,0,0.59,0.03,0.86,0.11l-0.58,2.93c-0.3-0.07-0.62-0.11-1.04-0.11c-2.19,0-4.07,1.66-4.95,3.99
			c-0.15,0.42-0.32,0.92-0.43,1.45l-1.79,9.11h-3.07L215.08,23.48z"/>
		<path class="st2" d="M241.14,26.55c-1.24,6.32-6.16,9.08-10.3,9.08c-4.63,0-7.53-3.39-6.47-8.79c1.12-5.72,5.53-9.08,10.26-9.08
			C239.55,17.76,242.17,21.32,241.14,26.55z M227.54,26.73c-0.74,3.74,0.86,6.57,3.9,6.57c2.97,0,5.74-2.79,6.5-6.64
			c0.57-2.9-0.16-6.57-3.83-6.57C230.44,20.09,228.18,23.48,227.54,26.73z"/>
	</g>
</g>
<text transform="matrix(0.7298 0 0 1 264.4804 63.8576)" class="st4 st5 st6">__________</text>
<text transform="matrix(0.7298 0 0 1 264.4804 50.5659)" class="st4 st5 st6">__________</text>
<text transform="matrix(0.7298 0 0 1 264.4804 37.4939)" class="st4 st5 st6">__________</text>
<text transform="matrix(0.7298 0 0 1 264.4804 25.6978)" class="st4 st5 st6">__________</text>
<path class="st2" d="M352.68,22.92h-45.36c-3.83,0-6.96-3.13-6.96-6.96v0c0-3.83,3.13-6.96,6.96-6.96h45.36
	c3.83,0,6.96,3.13,6.96,6.96v0C359.64,19.79,356.51,22.92,352.68,22.92z"/>
<g>
	<path d="M314.67,14.54v4.06h0.67v-0.95h-0.37v-1.23h1.88v2.46l-0.94,0.92h-1.81l-1-0.92v-4.62l1.07-1.01h1.59l1.08,1.01v1.43h-1.51
		v-1.16H314.67z"/>
	<path d="M321.04,18.53l-0.15,1.28h-1.5l1-6.54h2.18l1,6.54h-1.51l-0.14-1.28H321.04z M321.1,17.29h0.71l-0.28-2.75h-0.15
		L321.1,17.29z"/>
	<path d="M327.56,17.15v2.66h-1.49v-6.54h2.58l1.08,0.93v1.74l-0.8,0.57l0.8,0.65v2.66h-1.51v-2.66H327.56z M327.56,14.47v1.47h0.67
		v-1.47H327.56z"/>
	<path d="M333.96,18.53l-0.15,1.28h-1.5l1-6.54h2.18l1,6.54h-1.51l-0.14-1.28H333.96z M334.03,17.29h0.71l-0.29-2.75h-0.15
		L334.03,17.29z"/>
	<path d="M340.49,14.54v4.06h0.67v-0.95h-0.37v-1.23h1.88v2.46l-0.94,0.92h-1.81l-1-0.92v-4.62l1.07-1.01h1.59l1.08,1.01v1.43h-1.51
		v-1.16H340.49z"/>
	<path d="M347.95,13.26v1.2h-1.25v1.24h1.02v1.24h-1.02v1.66h1.25v1.2h-2.83v-6.54H347.95z"/>
</g>
</svg>
