<?xml version="1.0" encoding="utf-8"?>
<!-- Generator: Adobe Illustrator 24.0.1, SVG Export Plug-In . SVG Version: 6.00 Build 0)  -->
<svg version="1.1" id="Layer_1" xmlns="http://www.w3.org/2000/svg" xmlns:xlink="http://www.w3.org/1999/xlink" x="0px" y="0px"
	 viewBox="0 0 40 37" style="enable-background:new 0 0 40 37;" xml:space="preserve">
<style type="text/css">
	.st0{fill:#181818;}
	.st1{fill:#AD2323;}
	.st2{fill:url(#SVGID_1_);}
	.st3{fill:url(#SVGID_2_);}
	.st4{fill:url(#SVGID_3_);}
	.st5{fill:url(#SVGID_4_);}
</style>
<rect y="0" class="st0" width="40" height="37"/>
<path class="st1" d="M30.06,7.28l-9.69-2.87l-9.69,2.87l0,0.55c0,0.13,0,2.68,0.66,5.95c-0.1-0.53-0.36-2.64,0.84-5.39l8.19-2.43
	l8.19,2.43c-0.12,1.76,0.07,4.36-3.26,5.94c-3.11,1.47-4.43,1.46-4.43,1.46c-0.79-0.67-1.93-0.85-2.93-0.39
	c-1.38,0.64-1.99,2.28-1.35,3.66c0.64,1.38,2.28,1.99,3.66,1.35c1-0.46,1.6-1.45,1.6-2.49C28.04,15.3,30.5,13.3,30.06,7.28z
	 M20.67,18.79l-0.52,0.26l-0.3,0.5l-0.57-0.09l-0.54,0.23l-0.41-0.41l-0.57-0.13l-0.09-0.57l-0.38-0.44l0.27-0.52l-0.05-0.58
	l0.52-0.26l0.3-0.5l0.57,0.09l0.54-0.23l0.41,0.41l0.57,0.13l0.09,0.57l0.38,0.44l-0.27,0.52L20.67,18.79z"/>
<linearGradient id="SVGID_1_" gradientUnits="userSpaceOnUse" x1="27.463" y1="7.4632" x2="14.2743" y2="24.9382">
	<stop  offset="0" style="stop-color:#606060"/>
	<stop  offset="0.3116" style="stop-color:#908A90"/>
	<stop  offset="0.5531" style="stop-color:#BDBDBD"/>
	<stop  offset="0.82" style="stop-color:#807B82"/>
	<stop  offset="1" style="stop-color:#A3A3A3"/>
</linearGradient>
<path class="st2" d="M28.58,15.9c-0.63,1.94-1.43,3.66-2.39,5.12c-1.48,2.23-3.33,3.84-5.52,4.8l-0.3,0.13c0,0-3.05-0.92-5.82-4.94
	c-2.77-4.01-1.64-7.49,1.27-9.29c3-1.86,3.03-1.81,3.03-1.81c0.01-1.04,0.6-2.02,1.6-2.49c0.87-0.4,1.85-0.31,2.61,0.16l-2.23,1.36
	l-0.08,1.38l1.11,0.84l2.48-0.82c-0.14,0.89-0.7,1.69-1.57,2.09c-1,0.46-2.14,0.27-2.93-0.39c0,0-0.28,0-2.47,1.17
	c-4.24,2.27-2.51,8.45,3.01,11.1c0.09-0.02,0.19-0.04,0.28-0.07C23.85,23.45,26.44,20.92,28.58,15.9z"/>
<g>
	<linearGradient id="SVGID_2_" gradientUnits="userSpaceOnUse" x1="2.8737" y1="30.9656" x2="37.1263" y2="30.9656">
		<stop  offset="0" style="stop-color:#606060"/>
		<stop  offset="0.3116" style="stop-color:#908A90"/>
		<stop  offset="0.5531" style="stop-color:#BDBDBD"/>
		<stop  offset="0.82" style="stop-color:#807B82"/>
		<stop  offset="1" style="stop-color:#A3A3A3"/>
	</linearGradient>
	<path class="st3" d="M13.82,31.14c0,0-7.06-0.47-10.95,2.69c0,0,2.18-2.61,7.78-3.17c2.43-0.96,4.9-2.13,7.75-2.47
		c2.86-0.33,7.77,0.2,10.7,1.05c0,0-5.13,1.51-7.88,1.38c2.01-0.11,4.56-1.27,4.56-1.27c-3.32-0.88-5.56-0.96-7.96-0.52
		c-2.4,0.45-6.19,1.87-6.19,1.87C12.12,30.88,13.82,31.14,13.82,31.14z M35.91,30.39c0,0,0.95-0.15,1.21-0.56
		c-1.2,0.32-5.44,0.07-6.75-0.29c-1.82,0.92-6.48,1.64-10.21,1.98c8.94-0.55,15-3.18,16.8,2.06C37.3,31.71,35.91,30.39,35.91,30.39z
		"/>
	<linearGradient id="SVGID_3_" gradientUnits="userSpaceOnUse" x1="7.4948" y1="32.6551" x2="13.4677" y2="32.6551">
		<stop  offset="0" style="stop-color:#606060"/>
		<stop  offset="0.3116" style="stop-color:#908A90"/>
		<stop  offset="0.5531" style="stop-color:#BDBDBD"/>
		<stop  offset="0.82" style="stop-color:#807B82"/>
		<stop  offset="1" style="stop-color:#A3A3A3"/>
	</linearGradient>
	<path class="st4" d="M7.49,33.32c0.6-0.8,1.71-1.34,2.98-1.34c1.28,0,2.4,0.55,2.99,1.36h-0.8c-0.56-0.66-1.51-1.09-2.59-1.09
		C9,32.24,8.05,32.67,7.49,33.32z"/>
	<linearGradient id="SVGID_4_" gradientUnits="userSpaceOnUse" x1="27.5431" y1="32.2398" x2="34.0283" y2="32.2398">
		<stop  offset="0" style="stop-color:#606060"/>
		<stop  offset="0.3116" style="stop-color:#908A90"/>
		<stop  offset="0.5531" style="stop-color:#BDBDBD"/>
		<stop  offset="0.82" style="stop-color:#807B82"/>
		<stop  offset="1" style="stop-color:#A3A3A3"/>
	</linearGradient>
	<path class="st5" d="M27.54,32.9c0.65-0.8,1.86-1.34,3.24-1.34c1.39,0,2.6,0.55,3.25,1.36h-0.87c-0.6-0.66-1.64-1.09-2.81-1.09
		C29.18,31.83,28.15,32.25,27.54,32.9z"/>
</g>
</svg>
