<svg width="282" height="52" viewBox="0 0 282 52" fill="none" xmlns="http://www.w3.org/2000/svg">
<path d="M32.5202 35.7958H37.2872C37.324 38.1793 38.574 39.2761 40.5776 39.2761C42.6976 39.2761 43.7148 38.0261 43.7148 36.3289C43.7148 31.525 33.0471 31.1451 33.0471 23.1674C33.0471 19.2336 35.8473 16.2864 40.5347 16.2864C45.2221 16.2864 48.1387 19.1969 48.1755 23.9272H43.4084C43.3717 21.8071 42.3116 20.79 40.5347 20.79C38.7578 20.79 37.7713 21.7704 37.7713 23.2838C37.7713 27.8977 48.5492 28.0509 48.5492 36.3717C48.5492 40.5322 45.6388 43.8226 40.5347 43.8226C35.4306 43.8226 32.5569 40.9121 32.5141 35.808L32.5202 35.7958Z" fill="black"/>
<path d="M74.958 30.9184V43.2834H70.534V30.9552C70.534 28.0815 69.7375 27.0582 68.3037 27.0582C66.7167 27.0582 65.6567 28.345 65.6567 30.7653V43.2834H61.2328V30.9552C61.2328 28.0815 60.4362 27.0582 58.9657 27.0582C57.4155 27.0582 56.3554 28.345 56.3554 30.7653V43.2834H51.9315V23.2777H54.9216L55.3015 25.3977C56.2819 23.7311 57.9118 22.7875 60.0257 22.7875C62.0293 22.7875 63.6163 23.6943 64.566 25.4713C65.5893 23.7311 67.213 22.7875 69.3699 22.7875C72.8502 22.7875 74.9641 25.508 74.9641 30.9184H74.958Z" fill="black"/>
<path d="M92.6965 30.3118V43.2834H89.1059L88.8425 41.39C88.0827 42.7503 86.6857 43.8103 84.4185 43.8103C80.7483 43.8103 78.4076 41.2368 78.4076 37.5727C78.4076 33.3387 81.4713 31.2922 85.8585 31.2922H88.2052V30.3057C88.2052 28.2653 87.5986 27.0889 85.9381 27.0889C84.6881 27.0889 83.6343 27.7322 83.4443 29.2824H78.9836C79.1736 25.2384 81.7838 22.7752 86.0178 22.7752C90.5581 22.7752 92.7088 25.4222 92.7088 30.2996L92.6965 30.3118ZM88.193 35.0789H85.9259C84.0325 35.0789 82.9357 35.949 82.9357 37.5727C82.9357 38.933 83.769 39.9195 85.4663 39.9195C87.1636 39.9195 88.1868 38.8594 88.1868 37.156V35.0789H88.193Z" fill="black"/>
<path d="M107.972 23.2041V27.5178C107.255 27.2175 106.458 27.0276 105.515 27.0276C103.211 27.0276 101.771 28.3143 101.771 30.8449V43.2895H97.3104V23.2838H100.337L100.717 25.4774C101.777 23.774 103.517 22.8304 105.821 22.8304C106.691 22.8304 107.408 22.9468 107.978 23.2103L107.972 23.2041Z" fill="black"/>
<path d="M120.153 39.3496V43.5468H118.64C114.479 43.5468 111.949 40.8631 111.949 36.5494V27.3217H109.265V23.2777H111.949V18.5106H116.372V23.2777H119.853V27.3217H116.372V36.5862C116.372 38.4795 117.169 39.3496 118.909 39.3496H120.159H120.153Z" fill="black"/>
<path d="M148.038 17.8734V44.3495H143.461V36.0654C143.578 32.965 143.688 29.9381 143.841 26.9479L143.651 26.8744C142.898 29.068 142.028 31.4515 141.194 33.835L139.417 38.5224H134.803L133.027 33.835C132.193 31.4515 131.36 29.068 130.569 26.8744L130.38 26.9479C130.533 29.9381 130.643 32.9588 130.759 36.0654V44.3495H126.219V17.8734H130.906L135.22 28.2347C135.79 29.6317 136.697 32.052 137.034 33.1488H137.187C137.53 32.052 138.474 29.6317 139.037 28.2347L143.308 17.8734H148.038Z" fill="#B2D234"/>
<path d="M167.101 38.0323C166.721 42.303 164.037 44.8029 159.65 44.8029C155.263 44.8029 152.652 41.9292 152.652 37.0886V31.4515C152.652 26.6477 155.299 23.8475 159.687 23.8475C164.074 23.8475 166.837 26.6477 166.837 31.4515V35.9122H157.119V37.0825C157.119 39.466 158.063 40.5261 159.729 40.5261C161.58 40.5261 162.26 39.7724 162.603 38.0323H167.101ZM157.113 31.4148V32.7383H162.407V31.4148C162.407 29.068 161.463 28.008 159.723 28.008C157.983 28.008 157.113 29.068 157.113 31.4148Z" fill="#B2D234"/>
<path d="M174.135 38.069C174.171 39.4293 174.931 40.7895 177.045 40.7895C178.669 40.7895 179.619 39.993 179.619 38.7859C179.619 35.2321 170.011 36.3656 170.011 29.5582C170.011 26.0043 172.621 23.8475 176.702 23.8475C181.242 23.8475 183.32 26.6477 183.546 30.3915H179.233C179.159 28.8045 178.399 27.818 176.696 27.818C175.299 27.818 174.429 28.5349 174.429 29.5949C174.429 32.8118 184.073 31.5618 184.073 38.7859C184.073 42.4194 181.5 44.8765 177.149 44.8765C172.272 44.8765 169.735 41.7025 169.662 38.069H174.135Z" fill="#B2D234"/>
<path d="M190.777 38.069C190.813 39.4293 191.573 40.7895 193.687 40.7895C195.311 40.7895 196.26 39.993 196.26 38.7859C196.26 35.2321 186.653 36.3656 186.653 29.5582C186.653 26.0043 189.263 23.8475 193.344 23.8475C197.884 23.8475 199.961 26.6477 200.188 30.3915H195.874C195.801 28.8045 195.041 27.818 193.338 27.818C191.941 27.818 191.071 28.5349 191.071 29.5949C191.071 32.8118 200.715 31.5618 200.715 38.7859C200.715 42.4194 198.142 44.8765 193.791 44.8765C188.914 44.8765 186.377 41.7025 186.304 38.069H190.777Z" fill="#B2D234"/>
<path d="M217.479 31.378V44.3495H213.889L213.625 42.4562C212.865 43.8164 211.468 44.8765 209.201 44.8765C205.531 44.8765 203.19 42.303 203.19 38.6389C203.19 34.4049 206.254 32.3584 210.641 32.3584H212.988V31.3719C212.988 29.3315 212.381 28.155 210.721 28.155C209.471 28.155 208.417 28.7984 208.227 30.3486H203.766C203.956 26.3046 206.567 23.8414 210.801 23.8414C215.341 23.8414 217.492 26.4884 217.492 31.3657L217.479 31.378ZM212.976 36.1389H210.709C208.815 36.1389 207.719 37.009 207.719 38.6327C207.719 39.993 208.552 40.9795 210.249 40.9795C211.946 40.9795 212.97 39.9195 212.97 38.2161V36.1389H212.976Z" fill="#B2D234"/>
<path d="M235.935 24.3438V45.1828C235.935 49.0798 233.361 51.69 229.054 51.69C224.746 51.69 222.32 49.1166 222.21 45.2257H226.597C226.75 46.6595 227.54 47.5296 229.054 47.5296C230.567 47.5296 231.401 46.6227 231.401 45.1828V42.4255C230.457 43.0689 229.323 43.4488 228.037 43.4488C224.33 43.4488 221.646 40.4219 221.646 36.0347V31.4209C221.646 26.9173 224.33 23.8598 228.037 23.8598C229.814 23.8598 231.364 24.5031 232.497 25.7102L232.798 24.35H235.935V24.3438ZM231.394 31.3412C231.394 29.2212 230.371 28.1673 228.747 28.1673C227.124 28.1673 226.137 29.2273 226.137 31.4209V36.0347C226.137 38.1548 227.044 39.2087 228.747 39.2087C230.451 39.2087 231.394 38.1487 231.394 36.0347V31.3412Z" fill="#B2D234"/>
<path d="M240.248 18.6332C240.248 17.1197 241.308 16.0229 242.822 16.0229C244.335 16.0229 245.432 17.1197 245.432 18.6332C245.432 20.0302 244.299 21.2434 242.822 21.2434C241.345 21.2434 240.248 20.1099 240.248 18.6332ZM240.585 24.3438H245.046V44.3495H240.585V24.3438Z" fill="#B2D234"/>
<path d="M263.692 31.9417V44.3495H259.231V32.0581C259.231 29.2212 258.434 28.1244 256.884 28.1244C255.217 28.1244 254.164 29.4111 254.164 31.8314V44.3495H249.703V24.3438H252.73L253.11 26.5006C254.133 24.7972 255.757 23.8536 257.95 23.8536C261.541 23.8536 263.698 26.5006 263.698 31.9478L263.692 31.9417Z" fill="#B2D234"/>
<path d="M282 24.3438V45.1828C282 49.0798 279.427 51.69 275.119 51.69C270.812 51.69 268.385 49.1166 268.275 45.2257H272.662C272.815 46.6595 273.606 47.5296 275.119 47.5296C276.632 47.5296 277.466 46.6227 277.466 45.1828V42.4255C276.522 43.0689 275.389 43.4488 274.102 43.4488C270.395 43.4488 267.711 40.4219 267.711 36.0347V31.4209C267.711 26.9173 270.395 23.8598 274.102 23.8598C275.879 23.8598 277.429 24.5031 278.563 25.7102L278.863 24.35H282V24.3438ZM277.46 31.3412C277.46 29.2212 276.436 28.1673 274.813 28.1673C273.189 28.1673 272.202 29.2273 272.202 31.4209V36.0347C272.202 38.1548 273.109 39.2087 274.813 39.2087C276.516 39.2087 277.46 38.1487 277.46 36.0347V31.3412Z" fill="#B2D234"/>
<path d="M29.4504 43.8164V27.9099C29.4504 16.5683 20.9212 16.4335 20.9212 16.4335H8.62977C-0.38964 16.9053 0.00250977 27.2666 0.00250977 27.2666C-0.0158722 39.558 9.51823 39.2455 9.51823 39.2455H21.8403C21.8403 39.2455 29.5239 39.2087 29.4443 43.8103L29.4504 43.8164Z" fill="#B2D234"/>
<path d="M9.70818 29.0312C10.6151 29.0312 11.3503 28.211 11.3503 27.1992C11.3503 26.1873 10.6151 25.3671 9.70818 25.3671C8.80126 25.3671 8.06606 26.1873 8.06606 27.1992C8.06606 28.211 8.80126 29.0312 9.70818 29.0312Z" fill="white"/>
<path d="M14.8674 29.0312C15.7743 29.0312 16.5095 28.211 16.5095 27.1992C16.5095 26.1873 15.7743 25.3671 14.8674 25.3671C13.9605 25.3671 13.2253 26.1873 13.2253 27.1992C13.2253 28.211 13.9605 29.0312 14.8674 29.0312Z" fill="white"/>
<path d="M19.6589 29.0312C20.5659 29.0312 21.3011 28.211 21.3011 27.1992C21.3011 26.1873 20.5659 25.3671 19.6589 25.3671C18.752 25.3671 18.0168 26.1873 18.0168 27.1992C18.0168 28.211 18.752 29.0312 19.6589 29.0312Z" fill="white"/>
<path d="M31.5888 16.8991C33.1758 13.8722 36.3375 11.8073 39.9894 11.8073C42.5138 11.8073 44.7993 12.8 46.4966 14.4053C46.6927 13.3514 46.8091 12.1689 46.8091 10.8331C46.8091 10.8331 47.2074 0.471803 38.1818 0H25.8904C25.8904 0 17.3612 0.134801 17.3612 11.4765V12.2485H21.3317C25.4247 12.2485 29.0828 14.0499 31.5888 16.8991Z" fill="#B2D234"/>
</svg>
