<svg width="415" height="93" viewBox="0 0 415 93" fill="none" xmlns="http://www.w3.org/2000/svg">
<path d="M47.8145 69.6072H54.8235C54.8776 73.1117 56.7154 74.7243 59.6613 74.7243C62.7785 74.7243 64.274 72.8865 64.274 70.391C64.274 63.3279 48.5893 62.7694 48.5893 51.0396C48.5893 45.2558 52.7064 40.9225 59.5983 40.9225C66.4902 40.9225 70.7785 45.2018 70.8325 52.1567H63.8235C63.7695 49.0396 62.2109 47.5441 59.5983 47.5441C56.9857 47.5441 55.5352 48.9856 55.5352 51.2108C55.5352 57.9946 71.3821 58.2198 71.3821 70.454C71.3821 76.5712 67.1028 81.409 59.5983 81.409C52.0938 81.409 47.8686 77.1297 47.8055 69.6252L47.8145 69.6072Z" fill="black"/>
<path d="M110.211 62.436V80.6162H103.706V62.4901C103.706 58.2649 102.535 56.7603 100.427 56.7603C98.0938 56.7603 96.5352 58.6522 96.5352 62.2108V80.6162H90.0307V62.4901C90.0307 58.2649 88.8596 56.7603 86.6974 56.7603C84.4181 56.7603 82.8595 58.6522 82.8595 62.2108V80.6162H76.355V51.2018H80.7514L81.31 54.3189C82.7514 51.8685 85.1478 50.4811 88.256 50.4811C91.2019 50.4811 93.5352 51.8144 94.9316 54.427C96.4361 51.8685 98.8235 50.4811 101.995 50.4811C107.112 50.4811 110.22 54.4811 110.22 62.436H110.211Z" fill="black"/>
<path d="M136.292 61.5441V80.6162H131.013L130.625 77.8324C129.508 79.8324 127.454 81.391 124.121 81.391C118.724 81.391 115.283 77.6072 115.283 72.2198C115.283 65.9946 119.787 62.9856 126.238 62.9856H129.688V61.5351C129.688 58.5351 128.796 56.8054 126.355 56.8054C124.517 56.8054 122.968 57.7513 122.688 60.0306H116.13C116.409 54.0847 120.247 50.4631 126.472 50.4631C133.148 50.4631 136.31 54.3549 136.31 61.5261L136.292 61.5441ZM129.67 68.5531H126.337C123.553 68.5531 121.941 69.8324 121.941 72.2198C121.941 74.2198 123.166 75.6703 125.661 75.6703C128.157 75.6703 129.661 74.1117 129.661 71.6072V68.5531H129.67Z" fill="black"/>
<path d="M158.751 51.0937V57.436C157.697 56.9946 156.526 56.7153 155.139 56.7153C151.751 56.7153 149.634 58.6072 149.634 62.3279V80.6252H143.076V51.2108H147.526L148.085 54.436C149.643 51.9315 152.202 50.5441 155.589 50.5441C156.869 50.5441 157.923 50.7153 158.76 51.1027L158.751 51.0937Z" fill="black"/>
<path d="M176.661 74.8324V81.0036H174.436C168.319 81.0036 164.598 77.0576 164.598 70.7153V57.1477H160.652V51.2018H164.598V44.1928H171.103V51.2018H176.22V57.1477H171.103V70.7694C171.103 73.5531 172.274 74.8324 174.833 74.8324H176.67H176.661Z" fill="black"/>
<path d="M217.661 43.2558V82.1838H210.932V70.0036C211.103 65.445 211.265 60.9946 211.49 56.5982L211.211 56.4901C210.103 59.7153 208.824 63.2198 207.598 66.7243L204.986 73.6162H198.202L195.589 66.7243C194.364 63.2198 193.139 59.7153 191.977 56.4901L191.697 56.5982C191.923 60.9946 192.085 65.436 192.256 70.0036V82.1838H185.58V43.2558H192.472L198.815 58.4901C199.652 60.5441 200.986 64.1027 201.481 65.7153H201.706C202.211 64.1027 203.598 60.5441 204.427 58.4901L210.706 43.2558H217.661Z" fill="#B2D234"/>
<path d="M245.688 72.8955C245.13 79.1748 241.184 82.8504 234.733 82.8504C228.283 82.8504 224.445 78.6252 224.445 71.5081V63.2198C224.445 56.1567 228.337 52.0396 234.787 52.0396C241.238 52.0396 245.301 56.1567 245.301 63.2198V69.7784H231.013V71.4991C231.013 75.0036 232.4 76.5621 234.851 76.5621C237.571 76.5621 238.571 75.454 239.076 72.8955H245.688ZM231.004 63.1658V65.1117H238.788V63.1658C238.788 59.7153 237.4 58.1567 234.842 58.1567C232.283 58.1567 231.004 59.7153 231.004 63.1658Z" fill="#B2D234"/>
<path d="M256.031 72.9495C256.085 74.9495 257.202 76.9495 260.31 76.9495C262.697 76.9495 264.094 75.7784 264.094 74.0036C264.094 68.7784 249.968 70.445 249.968 60.436C249.968 55.2108 253.806 52.0396 259.806 52.0396C266.481 52.0396 269.535 56.1567 269.869 61.6613H263.526C263.418 59.3279 262.301 57.8775 259.797 57.8775C257.742 57.8775 256.463 58.9315 256.463 60.4901C256.463 65.2198 270.643 63.382 270.643 74.0036C270.643 79.3459 266.86 82.9585 260.463 82.9585C253.292 82.9585 249.562 78.2919 249.454 72.9495H256.031Z" fill="#B2D234"/>
<path d="M280.499 72.9495C280.553 74.9495 281.67 76.9495 284.778 76.9495C287.166 76.9495 288.562 75.7784 288.562 74.0036C288.562 68.7784 274.436 70.445 274.436 60.436C274.436 55.2108 278.274 52.0396 284.274 52.0396C290.95 52.0396 294.004 56.1567 294.337 61.6613H287.995C287.887 59.3279 286.77 57.8775 284.265 57.8775C282.211 57.8775 280.932 58.9315 280.932 60.4901C280.932 65.2198 295.112 63.382 295.112 74.0036C295.112 79.3459 291.328 82.9585 284.932 82.9585C277.76 82.9585 274.031 78.2919 273.923 72.9495H280.499Z" fill="#B2D234"/>
<path d="M319.76 63.1117V82.1838H314.481L314.094 79.4C312.977 81.4 310.923 82.9585 307.589 82.9585C302.193 82.9585 298.751 79.1748 298.751 73.7874C298.751 67.5621 303.256 64.5531 309.706 64.5531H313.157V63.1027C313.157 60.1027 312.265 58.373 309.824 58.373C307.986 58.373 306.436 59.3189 306.157 61.5982H299.598C299.878 55.6522 303.715 52.0306 309.941 52.0306C316.616 52.0306 319.779 55.9225 319.779 63.0937L319.76 63.1117ZM313.139 70.1117H309.806C307.022 70.1117 305.409 71.391 305.409 73.7784C305.409 75.7784 306.634 77.2288 309.13 77.2288C311.625 77.2288 313.13 75.6703 313.13 73.1658V70.1117H313.139Z" fill="#B2D234"/>
<path d="M346.896 52.7694V83.409C346.896 89.1387 343.112 92.9766 336.778 92.9766C330.445 92.9766 326.878 89.1928 326.715 83.4721H333.166C333.391 85.5802 334.553 86.8594 336.778 86.8594C339.004 86.8594 340.229 85.5261 340.229 83.409V79.3549C338.842 80.3009 337.175 80.8594 335.283 80.8594C329.833 80.8594 325.887 76.409 325.887 69.9585V63.1748C325.887 56.5531 329.833 52.0576 335.283 52.0576C337.896 52.0576 340.175 53.0036 341.842 54.7784L342.283 52.7784H346.896V52.7694ZM340.22 63.0576C340.22 59.9405 338.715 58.391 336.328 58.391C333.941 58.391 332.49 59.9495 332.49 63.1748V69.9585C332.49 73.0757 333.824 74.6252 336.328 74.6252C338.833 74.6252 340.22 73.0667 340.22 69.9585V63.0576Z" fill="#B2D234"/>
<path d="M353.238 44.373C353.238 42.1477 354.797 40.5351 357.022 40.5351C359.247 40.5351 360.86 42.1477 360.86 44.373C360.86 46.427 359.193 48.2108 357.022 48.2108C354.851 48.2108 353.238 46.5441 353.238 44.373ZM353.733 52.7694H360.292V82.1838H353.733V52.7694Z" fill="#B2D234"/>
<path d="M387.706 63.9405V82.1838H381.148V64.1117C381.148 59.9405 379.977 58.3279 377.697 58.3279C375.247 58.3279 373.697 60.2198 373.697 63.7784V82.1838H367.139V52.7694H371.589L372.148 55.9405C373.652 53.436 376.04 52.0486 379.265 52.0486C384.544 52.0486 387.715 55.9405 387.715 63.9495L387.706 63.9405Z" fill="#B2D234"/>
<path d="M414.625 52.7694V83.409C414.625 89.1387 410.842 92.9766 404.508 92.9766C398.175 92.9766 394.607 89.1928 394.445 83.4721H400.896C401.121 85.5802 402.283 86.8594 404.508 86.8594C406.733 86.8594 407.959 85.5261 407.959 83.409V79.3549C406.571 80.3009 404.905 80.8594 403.013 80.8594C397.562 80.8594 393.616 76.409 393.616 69.9585V63.1748C393.616 56.5531 397.562 52.0576 403.013 52.0576C405.625 52.0576 407.905 53.0036 409.571 54.7784L410.013 52.7784H414.625V52.7694ZM407.95 63.0576C407.95 59.9405 406.445 58.391 404.058 58.391C401.67 58.391 400.22 59.9495 400.22 63.1748V69.9585C400.22 73.0757 401.553 74.6252 404.058 74.6252C406.562 74.6252 407.95 73.0667 407.95 69.9585V63.0576Z" fill="#B2D234"/>
<path d="M43.301 81.4V58.0126C43.301 41.3369 30.7604 41.1387 30.7604 41.1387H12.6884C-0.572889 41.8324 0.00369013 57.0667 0.00369013 57.0667C-0.0233369 75.1387 13.9947 74.6793 13.9947 74.6793H32.1118C32.1118 74.6793 43.4091 74.6252 43.292 81.391L43.301 81.4Z" fill="#B2D234"/>
<path d="M14.274 59.6612C15.6074 59.6612 16.6884 58.4552 16.6884 56.9676C16.6884 55.4799 15.6074 54.2739 14.274 54.2739C12.9405 54.2739 11.8595 55.4799 11.8595 56.9676C11.8595 58.4552 12.9405 59.6612 14.274 59.6612Z" fill="white"/>
<path d="M21.8595 59.6612C23.193 59.6612 24.274 58.4552 24.274 56.9676C24.274 55.4799 23.193 54.2739 21.8595 54.2739C20.5261 54.2739 19.4451 55.4799 19.4451 56.9676C19.4451 58.4552 20.5261 59.6612 21.8595 59.6612Z" fill="white"/>
<path d="M28.9046 59.6612C30.238 59.6612 31.319 58.4552 31.319 56.9676C31.319 55.4799 30.238 54.2739 28.9046 54.2739C27.5711 54.2739 26.4902 55.4799 26.4902 56.9676C26.4902 58.4552 27.5711 59.6612 28.9046 59.6612Z" fill="white"/>
<path d="M46.4451 41.8234C48.7785 37.373 53.4271 34.3369 58.7965 34.3369C62.5082 34.3369 65.8686 35.7964 68.3641 38.1567C68.6523 36.6072 68.8235 34.8685 68.8235 32.9045C68.8235 32.9045 69.4091 17.6703 56.1388 16.9766H38.0668C38.0668 16.9766 25.5262 17.1748 25.5262 33.8504V34.9856H31.3641C37.3821 34.9856 42.7604 37.6342 46.4451 41.8234Z" fill="#B2D234"/>
<path fill-rule="evenodd" clip-rule="evenodd" d="M380.774 16.1111C382.286 16.1111 383.085 16.5342 383.515 17.5298C385.555 22.1963 387.607 26.8503 389.634 31.5293C390.064 32.5373 389.733 33.483 388.885 33.9061C387.938 34.379 386.894 34.043 386.39 33.0599C385.985 32.2635 385.714 31.3924 385.296 30.6084C385.149 30.3347 384.731 30.036 384.436 30.0236C382.298 29.9738 380.16 30.0111 378.022 29.9862C377.518 29.9738 377.248 30.1356 377.063 30.6209C376.781 31.4049 376.449 32.1764 376.092 32.923C375.613 33.9559 374.63 34.3541 373.672 33.9434C372.75 33.5452 372.394 32.587 372.848 31.5293C374.876 26.8628 376.928 22.1963 378.98 17.5422C379.423 16.5467 380.197 16.1111 380.774 16.1111ZM383.65 26.6139C382.826 24.6353 382.065 22.7936 381.192 20.703C380.32 22.8185 379.558 24.6726 378.747 26.6139C380.43 26.6139 381.942 26.6139 383.65 26.6139Z" fill="#30312D"/>
<path fill-rule="evenodd" clip-rule="evenodd" d="M407.958 16.1184C409.745 16.0936 411.399 16.5525 412.945 17.4704C413.96 18.0781 414.31 19.1324 413.791 20.0379C413.296 20.8937 412.293 21.0426 411.242 20.5588C410.264 20.1123 409.238 19.7898 408.211 19.4549C407.909 19.3557 407.547 19.4053 407.233 19.4549C406.424 19.5789 405.687 19.8518 405.53 20.8193C405.373 21.8116 405.977 22.3077 406.762 22.6054C407.692 22.9527 408.658 23.1884 409.6 23.5108C410.421 23.7837 411.255 24.0566 412.04 24.4287C413.803 25.2597 414.66 26.6985 414.624 28.6955C414.588 30.7545 413.827 32.3917 411.967 33.2724C408.984 34.6864 406.062 34.1902 403.199 32.7886C402.825 32.6026 402.475 32.3545 402.125 32.1188C401.267 31.5111 401.026 30.4692 401.533 29.6257C402.016 28.8195 403.091 28.6583 404.009 29.1296C405.12 29.7002 406.255 30.2955 407.438 30.6428C408.139 30.8537 408.984 30.68 409.733 30.5436C410.373 30.4196 410.856 29.9606 410.928 29.2164C411.013 28.4226 410.627 27.8769 409.962 27.6164C408.96 27.2195 407.909 26.9218 406.895 26.5745C405.989 26.2644 405.059 25.9791 404.19 25.5822C400.953 24.131 401.171 18.934 403.924 17.1851C405.168 16.3913 406.508 16.0564 407.958 16.1184Z" fill="#30312D"/>
<path fill-rule="evenodd" clip-rule="evenodd" d="M396.489 25.1463C396.489 27.4299 396.489 29.7009 396.489 31.9845C396.489 33.3396 395.765 34.1301 394.566 34.1175C393.405 34.105 392.694 33.3521 392.694 32.0222C392.681 27.4299 392.681 22.8502 392.694 18.258C392.694 16.9531 393.418 16.1375 394.529 16.1124C395.715 16.0748 396.476 16.8653 396.489 18.2203C396.514 20.529 396.489 22.8377 396.489 25.1463Z" fill="#30312D"/>
<path d="M324 3.10527C324 3.10527 338.746 13.7295 355.106 9.50923C371.478 5.30127 383.526 -1.65475 388.911 0.357217C386.212 1.6331 379.851 5.85333 373.683 11.5335C367.515 17.2136 347.552 26.7337 324 3.10527Z" fill="url(#paint0_linear_21771_5302)"/>
<path d="M332.626 11.7173C332.626 11.7173 348.986 27.5309 367.936 16.4773C366.322 18.796 351.335 38.8176 332.626 11.7173Z" fill="url(#paint1_linear_21771_5302)"/>
<defs>
<linearGradient id="paint0_linear_21771_5302" x1="350.264" y1="7.57958" x2="380.886" y2="-4.04064" gradientUnits="userSpaceOnUse">
<stop stop-color="#CADE1F"/>
<stop offset="1" stop-color="#6FA42E"/>
</linearGradient>
<linearGradient id="paint1_linear_21771_5302" x1="353.637" y1="19.2868" x2="334.415" y2="12.9063" gradientUnits="userSpaceOnUse">
<stop stop-color="#CADE1F"/>
<stop offset="1" stop-color="#6FA42E"/>
</linearGradient>
</defs>
</svg>
