<svg width="40" height="37" viewBox="0 0 40 37" fill="none" xmlns="http://www.w3.org/2000/svg">
<path d="M32.4966 1.97675H22.9703C22.9703 1.97675 16.3599 2.08179 16.3599 10.92V12.5052H21.4317C21.4317 12.5052 27.0496 12.6007 27.819 19.7581H31.808C31.808 19.7581 39.1973 20.0017 39.1831 10.4234C39.1831 10.4234 39.4918 2.34918 32.4966 1.98152V1.97675Z" fill="#B2D234"/>
<path d="M24.0198 12.5004C24.7647 12.5004 25.3685 11.8933 25.3685 11.1444C25.3685 10.3955 24.7647 9.78833 24.0198 9.78833C23.275 9.78833 22.6711 10.3955 22.6711 11.1444C22.6711 11.8933 23.275 12.5004 24.0198 12.5004Z" fill="white"/>
<path d="M28.0137 12.5004C28.7586 12.5004 29.3624 11.8933 29.3624 11.1444C29.3624 10.3955 28.7586 9.78833 28.0137 9.78833C27.2689 9.78833 26.665 10.3955 26.665 11.1444C26.665 11.8933 27.2689 12.5004 28.0137 12.5004Z" fill="white"/>
<path d="M31.7273 12.5004C32.4722 12.5004 33.076 11.8933 33.076 11.1444C33.076 10.3955 32.4722 9.78833 31.7273 9.78833C30.9825 9.78833 30.3787 10.3955 30.3787 11.1444C30.3787 11.8933 30.9825 12.5004 31.7273 12.5004Z" fill="white"/>
<path d="M25.7295 36.1215V23.7261C25.7295 14.8879 19.119 14.7828 19.119 14.7828H9.5927C2.60231 15.1505 2.90624 23.2247 2.90624 23.2247C2.892 32.803 10.2813 32.5595 10.2813 32.5595H19.8313C19.8313 32.5595 25.7864 32.5308 25.7247 36.1167L25.7295 36.1215Z" fill="#B2D235"/>
<path d="M10.4617 24.533C11.2066 24.533 11.8104 23.9258 11.8104 23.1769C11.8104 22.428 11.2066 21.8209 10.4617 21.8209C9.71687 21.8209 9.11304 22.428 9.11304 23.1769C9.11304 23.9258 9.71687 24.533 10.4617 24.533Z" fill="white"/>
<path d="M14.4605 24.533C15.2054 24.533 15.8092 23.9258 15.8092 23.1769C15.8092 22.428 15.2054 21.8209 14.4605 21.8209C13.7156 21.8209 13.1118 22.428 13.1118 23.1769C13.1118 23.9258 13.7156 24.533 14.4605 24.533Z" fill="white"/>
<path d="M18.1741 24.533C18.919 24.533 19.5228 23.9258 19.5228 23.1769C19.5228 22.428 18.919 21.8209 18.1741 21.8209C17.4293 21.8209 16.8254 22.428 16.8254 23.1769C16.8254 23.9258 17.4293 24.533 18.1741 24.533Z" fill="white"/>
</svg>
