<svg width="14" height="14" viewBox="0 0 14 14" fill="none" xmlns="http://www.w3.org/2000/svg">
<path d="M6.99999 0.333984C3.3216 0.333984 0.333328 3.32226 0.333328 7.00065C0.333328 10.679 3.3216 13.6673 6.99999 13.6673C10.6784 13.6673 13.6667 10.679 13.6667 7.00065C13.6667 3.32226 10.6784 0.333984 6.99999 0.333984ZM6.99999 12.3273C4.06532 12.3273 1.67336 9.93532 1.67336 7.00065C1.67336 4.06598 4.06532 1.67402 6.99999 1.67402C9.93467 1.67402 12.3266 4.06598 12.3266 7.00065C12.3266 9.93532 9.93467 12.3273 6.99999 12.3273Z" fill="#F5222D"/>
<path d="M6.98009 8.7823C7.3504 8.7823 7.65338 8.48079 7.65338 8.11228V3.57627C7.65338 3.20776 7.3504 2.90625 6.98009 2.90625C6.60979 2.90625 6.30681 3.20776 6.30681 3.57627V8.11228C6.30681 8.48079 6.60979 8.7823 6.98009 8.7823Z" fill="#F5222D"/>
<path d="M6.97968 10.8127C7.37755 10.8127 7.70009 10.4918 7.70009 10.0958C7.70009 9.69988 7.37755 9.37891 6.97968 9.37891C6.5818 9.37891 6.25926 9.69988 6.25926 10.0958C6.25926 10.4918 6.5818 10.8127 6.97968 10.8127Z" fill="#F5222D"/>
</svg>