<svg width="34" height="33" viewBox="0 0 34 33" fill="none" xmlns="http://www.w3.org/2000/svg">
<path d="M15.4991 0.781822C12.5869 1.08888 9.90869 2.07014 7.58166 3.6722C3.91211 6.20211 1.50245 10.0003 0.786444 14.3926C0.614326 15.4673 0.614326 17.9772 0.793328 19.0653C1.83292 25.5136 6.60403 30.6468 13.0481 32.2489C14.3562 32.576 15.2237 32.6894 16.7039 32.7295C21.2547 32.8563 25.537 31.2142 28.7591 28.1102C30.1635 26.7552 31.0654 25.5336 31.9536 23.7713C33.7229 20.2869 34.1222 16.4686 33.1171 12.6771C32.8417 11.6224 32.5112 10.7813 31.9191 9.61983C29.5095 4.88709 25.0138 1.71635 19.5266 0.875275C18.7005 0.748446 16.3184 0.688369 15.4991 0.781822ZM18.5352 2.91122C28.3873 3.87246 34.3012 13.9788 30.0947 22.6499C29.7711 23.3241 29.0895 24.4722 29.0138 24.4722C29 24.4722 28.6833 24.2119 28.3184 23.8915C27.9467 23.5777 27.3546 23.0971 26.9897 22.8368C23.5749 20.3603 19.1273 19.2522 14.9139 19.8329C11.5335 20.2935 8.59371 21.6353 5.98441 23.8982C5.61951 24.2119 5.30282 24.4722 5.28905 24.4722C5.26839 24.4722 5.09628 24.2252 4.91039 23.9182C1.83292 18.9585 2.21158 12.7705 5.87425 8.17798C8.81402 4.49325 13.7297 2.44396 18.5352 2.91122Z" fill="#777777"/>
<path d="M16.1531 5.0473C14.7418 5.26758 13.5094 5.88838 12.4698 6.90969C11.5817 7.77747 11.0034 8.77208 10.7004 9.96027C10.5145 10.6945 10.5352 12.1965 10.7349 12.9241C11.0791 14.139 11.5748 14.9867 12.4354 15.8345C13.1239 16.5087 13.4337 16.729 14.2323 17.1161C16.7177 18.3243 19.685 17.8838 21.7091 16.0014C22.6041 15.1803 23.2237 14.1456 23.568 12.9308C23.7883 12.1698 23.7814 10.6411 23.568 9.85347C23.2169 8.6052 22.7349 7.7975 21.7986 6.88299C20.8692 5.98183 20.0292 5.50789 18.7693 5.1808C18.1359 5.01392 16.8141 4.94717 16.1531 5.0473Z" fill="#777777"/>
</svg>
