<svg width="24" height="24" viewBox="0 0 24 24" fill="none" xmlns="http://www.w3.org/2000/svg">
<path fill-rule="evenodd" clip-rule="evenodd" d="M17.1582 3.40002C16.6059 3.40002 16.1582 3.84774 16.1582 4.40002C16.1582 4.95231 16.6059 5.40002 17.1582 5.40002H19.7582V8.00002V9.00002H21.7582V8.00002V4.40002C21.7582 3.84774 21.3105 3.40002 20.7582 3.40002H17.1582ZM8.1582 21.6C8.71049 21.6 9.1582 21.1523 9.1582 20.6C9.1582 20.0477 8.71049 19.6 8.1582 19.6H5.5582L5.5582 17L5.55821 16H3.5582V17V20.6C3.5582 21.1523 4.00592 21.6 4.5582 21.6H8.1582ZM9.1582 4.40002C9.1582 3.84774 8.71049 3.40002 8.1582 3.40002H4.5582C4.00592 3.40002 3.5582 3.84774 3.5582 4.40002V8.00002V9.00002H5.5582V8.00002V5.40002H8.1582C8.71049 5.40002 9.1582 4.95231 9.1582 4.40002ZM17.1582 21.6C16.6059 21.6 16.1582 21.1523 16.1582 20.6C16.1582 20.0477 16.6059 19.6 17.1582 19.6H19.7582V17V16H21.7582V17V20.6C21.7582 21.1523 21.3105 21.6 20.7582 21.6H17.1582Z" fill="#1B1C19"/>
</svg>
