<svg width="24" height="25" viewBox="0 0 24 25" fill="none" xmlns="http://www.w3.org/2000/svg">
<path d="M19.9998 5.42989C19.9998 4.93574 19.5992 4.53516 19.1051 4.53516L14.184 4.53516C13.6899 4.53516 13.2893 4.93574 13.2893 5.42989L13.2893 12.5878C13.2893 13.0819 13.6899 13.4825 14.184 13.4825L19.1051 13.4825C19.5992 13.4825 19.9998 13.0819 19.9998 12.5878V5.42989Z" fill="white"/>
<path d="M19.9998 20.64C19.9998 21.1341 19.5992 21.5347 19.1051 21.5347H14.184C13.6899 21.5347 13.2893 21.1341 13.2893 20.64V17.9558C13.2893 17.4616 13.6899 17.061 14.184 17.061L19.1051 17.061C19.5992 17.061 19.9998 17.4616 19.9998 17.9558V20.64Z" fill="white"/>
<path d="M3 20.6405C3 21.1346 3.40059 21.5352 3.89474 21.5352H8.81579C9.30994 21.5352 9.71053 21.1346 9.71053 20.6405V13.4826C9.71053 12.9884 9.30994 12.5878 8.81579 12.5878H3.89474C3.40059 12.5878 3 12.9884 3 13.4826V20.6405Z" fill="white"/>
<path d="M3 5.42989C3 4.93574 3.40059 4.53516 3.89474 4.53516H8.81579C9.30994 4.53516 9.71053 4.93574 9.71053 5.42989V8.1141C9.71053 8.60825 9.30994 9.00884 8.81579 9.00884H3.89474C3.40059 9.00884 3 8.60825 3 8.1141V5.42989Z" fill="white"/>
<path d="M19.9998 5.42989C19.9998 4.93574 19.5992 4.53516 19.1051 4.53516L14.184 4.53516C13.6899 4.53516 13.2893 4.93574 13.2893 5.42989L13.2893 12.5878C13.2893 13.0819 13.6899 13.4825 14.184 13.4825L19.1051 13.4825C19.5992 13.4825 19.9998 13.0819 19.9998 12.5878V5.42989Z" stroke="#253300" stroke-width="1.5"/>
<path d="M19.9998 20.64C19.9998 21.1341 19.5992 21.5347 19.1051 21.5347H14.184C13.6899 21.5347 13.2893 21.1341 13.2893 20.64V17.9558C13.2893 17.4616 13.6899 17.061 14.184 17.061L19.1051 17.061C19.5992 17.061 19.9998 17.4616 19.9998 17.9558V20.64Z" stroke="#253300" stroke-width="1.5"/>
<path d="M3 20.6405C3 21.1346 3.40059 21.5352 3.89474 21.5352H8.81579C9.30994 21.5352 9.71053 21.1346 9.71053 20.6405V13.4826C9.71053 12.9884 9.30994 12.5878 8.81579 12.5878H3.89474C3.40059 12.5878 3 12.9884 3 13.4826V20.6405Z" stroke="#253300" stroke-width="1.5"/>
<path d="M3 5.42989C3 4.93574 3.40059 4.53516 3.89474 4.53516H8.81579C9.30994 4.53516 9.71053 4.93574 9.71053 5.42989V8.1141C9.71053 8.60825 9.30994 9.00884 8.81579 9.00884H3.89474C3.40059 9.00884 3 8.60825 3 8.1141V5.42989Z" stroke="#253300" stroke-width="1.5"/>
</svg>
