<?xml version="1.0" encoding="utf-8"?>
<!-- Generator: Adobe Illustrator 24.0.1, SVG Export Plug-In . SVG Version: 6.00 Build 0)  -->
<svg version="1.1" id="Layer_1" xmlns="http://www.w3.org/2000/svg" xmlns:xlink="http://www.w3.org/1999/xlink" x="0px" y="0px"
	 viewBox="0 0 24 24" style="enable-background:new 0 0 24 24;" xml:space="preserve">
<style type="text/css">
	.st0{display:none;}
	.st1{display:inline;fill:#7AA941;}
	.st2{display:inline;}
	.st3{fill-rule:evenodd;clip-rule:evenodd;fill:#EE2B31;}
	.st4{fill:#EE2B31;}
	.st5{display:none;fill:#0A131B;}
	.st6{display:inline;fill:#FBCF3A;}
	.st7{fill:none;}
	.st8{fill:#EF4129;}
	.st9{display:none;fill:#2A2E32;}
	.st10{display:inline;fill:#0B141C;}
	.st11{display:inline;fill:#0A131B;}
	.st12{fill:#FFFFFF;fill-opacity:0.01;}
	.st13{fill:none;stroke:#0B141C;stroke-width:1.5;stroke-linejoin:round;stroke-miterlimit:10.6667;}
	.st14{fill:none;stroke:#0B141C;stroke-width:1.5;stroke-linecap:round;stroke-linejoin:round;stroke-miterlimit:10.6667;}
	.st15{display:inline;fill:#FFFFFF;}
	.st16{display:inline;fill:none;stroke:#293418;stroke-width:1.5;}
</style>
<g id="SVGRepo_iconCarrier_1_" class="st0">
	<path class="st1" d="M12,0c6.63,0,12,5.37,12,12s-5.37,12-12,12S0,18.64,0,12S5.37,0,12,0z M10.52,14.38l-2.67-2.67
		c-0.4-0.4-1.06-0.4-1.46,0c-0.4,0.4-0.4,1.06,0,1.46l3.4,3.4c0.4,0.4,1.04,0.4,1.45,0l0,0l7.03-7.03c0.4-0.4,0.42-1.04,0.01-1.46
		c-0.4-0.4-1.04-0.42-1.46-0.01l-0.01,0.01C16.82,8.06,10.52,14.38,10.52,14.38z"/>
</g>
<g id="SVGRepo_iconCarrier" class="st0">
	<title>1048</title>
	<g class="st2">
		<path class="st3" d="M20.48,3.52C15.79-1.17,8.19-1.18,3.51,3.51c-4.68,4.69-4.68,12.28,0.01,16.97
			c4.69,4.69,12.29,4.7,16.97,0.02C25.17,15.81,25.17,8.21,20.48,3.52L20.48,3.52z M14.43,17.05l-2.55-2.55l-2.55,2.55
			c-1.04,1.04-1.82,1.95-3.06,0.71c-1.24-1.24-0.34-2.02,0.71-3.06l2.55-2.55L6.98,9.59C5.93,8.55,5.03,7.77,6.27,6.53
			c1.24-1.24,2.02-0.33,3.06,0.71l2.55,2.55l2.55-2.55c1.04-1.04,1.82-1.95,3.06-0.71c1.24,1.24,0.34,2.02-0.71,3.06l-2.55,2.55
			l2.55,2.55c1.04,1.04,1.95,1.83,0.71,3.07C16.26,18.99,15.47,18.09,14.43,17.05L14.43,17.05z"/>
	</g>
</g>
<g id="SVGRepo_iconCarrier_2_" class="st0">
	<title>ic_fluent_error_circle_24_filled</title>
	<desc>Created with Sketch.</desc>
	<g id="_xD83D__xDD0D_-System-Icons" class="st2">
		<g id="ic_fluent_error_circle_24_filled">
			<path id="_xD83C__xDFA8_-Color" class="st4" d="M12,0c6.63,0,12,5.37,12,12s-5.37,12-12,12S0,18.62,0,12S5.38,0,12,0z M12,15.6
				c-0.66,0-1.2,0.54-1.2,1.2S11.34,18,12,18s1.2-0.54,1.2-1.2S12.67,15.6,12,15.6z M12,6c-0.62,0-1.12,0.46-1.19,1.06L10.8,7.2l0,6
				l0.01,0.14c0.07,0.6,0.58,1.06,1.19,1.06c0.62,0,1.12-0.46,1.19-1.06l0.01-0.14l0-6l-0.01-0.14C13.12,6.46,12.62,6,12,6z"/>
		</g>
	</g>
</g>
<ellipse class="st5" cx="12.53" cy="12.52" rx="6.93" ry="8.09"/>
<g id="SVGRepo_iconCarrier_3_" class="st0">
	<path class="st6" d="M12,24c6.55,0,12-5.44,12-12c0-6.55-5.46-12-12.01-12C5.42,0,0,5.45,0,12C0,18.56,5.44,24,12,24z M11.78,14.55
		c-0.65,0-0.99-0.33-0.99-0.96v-0.16c0-1.21,0.65-1.87,1.54-2.48c1.09-0.74,1.6-1.16,1.6-2.01c0-0.93-0.73-1.56-1.86-1.56
		c-0.81,0-1.44,0.41-1.81,1.08c-0.4,0.47-0.52,0.84-1.22,0.84c-0.4,0-0.85-0.29-0.85-0.85c0-0.21,0.05-0.41,0.11-0.61
		c0.32-1.14,1.74-2.13,3.86-2.13c2.11,0,3.93,1.09,3.93,3.14c0,1.48-0.86,2.19-2.06,3c-0.85,0.58-1.27,1-1.27,1.69v0.15
		C12.75,14.16,12.39,14.55,11.78,14.55z M11.81,18.09c-0.67,0-1.32-0.54-1.32-1.27c0-0.73,0.64-1.27,1.32-1.27
		c0.69,0,1.32,0.53,1.32,1.27C13.13,17.56,12.49,18.09,11.81,18.09z"/>
</g>
<g id="SVGRepo_iconCarrier_4_" class="st0">
	<title>expire</title>
	<g id="Layer_2_1_" class="st2">
		<g id="invisible_box">
			<rect class="st7" width="24" height="24"/>
		</g>
		<g id="Q3_icons">
			<g>
				<path class="st8" d="M7.1,15.95L7.1,15.95c0.29-0.47,0.15-1.08-0.31-1.38c-0.04-0.03-0.09-0.05-0.14-0.07
					c-2.42-1.01-3.89-3.49-3.6-6.1C3.32,5.54,5.59,3.27,8.45,3c2.24-0.18,4.4,0.9,5.6,2.8c0.26,0.36,0.71,0.54,1.15,0.45l0,0
					c0.53-0.16,0.83-0.72,0.67-1.25c-0.03-0.09-0.07-0.17-0.12-0.25c-1.59-2.56-4.5-4-7.5-3.7C3.85,1.48,0.64,5.4,1.07,9.8
					c0.28,2.89,2.11,5.4,4.78,6.55C6.31,16.55,6.84,16.38,7.1,15.95z"/>
				<path class="st8" d="M8.25,5.75v2.5h-2.5c-0.55,0-1,0.45-1,1s0.45,1,1,1h4.5v-4.5c0-0.55-0.45-1-1-1S8.25,5.2,8.25,5.75z"/>
				<path class="st8" d="M22.85,21.5l-7.5-13c-0.29-0.47-0.91-0.61-1.38-0.32c-0.13,0.08-0.24,0.19-0.32,0.32l-7.5,13
					c-0.28,0.48-0.11,1.09,0.37,1.37C6.66,22.95,6.83,23,7,23h15c0.55-0.01,0.99-0.46,0.98-1.02C22.98,21.81,22.94,21.65,22.85,21.5
					z M14.5,21c-0.55,0-1-0.45-1-1s0.45-1,1-1s1,0.45,1,1S15.05,21,14.5,21z M15.5,17c0,0.55-0.45,1-1,1s-1-0.45-1-1v-4
					c0-0.55,0.45-1,1-1s1,0.45,1,1V17z"/>
			</g>
		</g>
	</g>
</g>
<path class="st9" d="M24,12c0-6.61-5.39-12-12-12S0,5.39,0,12c0,3.48,1.5,6.61,3.88,8.81c0,0.01,0,0.01-0.01,0.02
	c0.12,0.12,0.26,0.22,0.38,0.32c0.07,0.06,0.13,0.12,0.2,0.17c0.22,0.18,0.46,0.35,0.68,0.52c0.08,0.06,0.16,0.11,0.24,0.17
	c0.23,0.16,0.47,0.3,0.72,0.43c0.08,0.05,0.18,0.11,0.26,0.16c0.24,0.13,0.49,0.25,0.76,0.36c0.1,0.05,0.19,0.1,0.29,0.13
	c0.26,0.11,0.53,0.2,0.79,0.29c0.1,0.04,0.19,0.07,0.29,0.1c0.29,0.08,0.58,0.16,0.86,0.23c0.08,0.02,0.17,0.05,0.26,0.06
	c0.34,0.07,0.67,0.12,1.02,0.16c0.05,0,0.1,0.01,0.14,0.02C11.18,23.98,11.59,24,12,24s0.82-0.02,1.21-0.06
	c0.05,0,0.1-0.01,0.14-0.02c0.35-0.04,0.68-0.08,1.02-0.16c0.08-0.01,0.17-0.05,0.26-0.06c0.29-0.07,0.59-0.13,0.86-0.23
	c0.1-0.04,0.19-0.07,0.29-0.1c0.26-0.1,0.54-0.18,0.79-0.29c0.1-0.04,0.19-0.08,0.29-0.13c0.25-0.11,0.5-0.23,0.76-0.36
	c0.1-0.05,0.18-0.11,0.26-0.16c0.24-0.14,0.48-0.28,0.72-0.43c0.08-0.05,0.16-0.11,0.24-0.17c0.24-0.17,0.47-0.34,0.68-0.52
	c0.07-0.06,0.13-0.12,0.2-0.17c0.13-0.11,0.26-0.22,0.38-0.32c0-0.01,0-0.01-0.01-0.02C22.5,18.61,24,15.48,24,12z M17.93,17.96
	c-3.25-2.18-8.58-2.18-11.86,0c-0.53,0.35-0.96,0.76-1.32,1.2C2.93,17.32,1.8,14.78,1.8,12C1.8,6.37,6.37,1.8,12,1.8
	S22.2,6.37,22.2,12c0,2.78-1.13,5.32-2.95,7.16C18.9,18.72,18.46,18.31,17.93,17.96z"/>
<path class="st9" d="M12,5.92c-2.48,0-4.5,2.02-4.5,4.5c0,2.44,1.91,4.42,4.44,4.49c0.04,0,0.08,0,0.11,0s0.06,0,0.08,0
	c0.01,0,0.02,0,0.02,0c2.42-0.08,4.33-2.05,4.34-4.49C16.5,7.93,14.48,5.92,12,5.92z"/>
<g id="SVGRepo_iconCarrier_5_" class="st0">
	<circle class="st10" cx="6" cy="12" r="2"/>
	<path class="st10" d="M8.71,5.72L6.75,7.68C6.5,7.92,6.14,8.05,5.8,7.98C5.5,7.93,4.64,7.33,4.46,7.21C4,6.92,3.86,6.3,4.16,5.83
		c0.29-0.46,0.91-0.6,1.38-0.3l0.32,0.2l1.43-1.43c0.39-0.39,1.03-0.39,1.42,0C9.1,4.68,9.1,5.33,8.71,5.72z"/>
	<path class="st11" d="M20,7c0,0.55-0.45,1-1,1h-8.01C10.44,7.99,10,7.55,10,7s0.44-0.99,0.99-1H19C19.55,6,20,6.45,20,7z"/>
	<circle class="st10" cx="6" cy="18" r="2"/>
	<path class="st10" d="M20,13c0,0.55-0.45,1-1,1h-8.01C10.44,13.99,10,13.55,10,13s0.44-0.99,0.99-1H19C19.55,12,20,12.45,20,13z
		 M20,19c0,0.55-0.45,1-1,1h-8.01C10.44,19.99,10,19.55,10,19s0.44-0.99,0.99-1H19C19.55,18,20,18.45,20,19z"/>
	<path class="st10" d="M22,0H2C0.9,0,0,0.9,0,2v20c0,1.1,0.9,2,2,2h20c1.1,0,2-0.9,2-2V2C24,0.9,23.1,0,22,0z M22,21.5
		c0,0.28-0.22,0.5-0.5,0.5h-19C2.22,22,2,21.78,2,21.5v-19C2,2.22,2.22,2,2.5,2h19C21.78,2,22,2.22,22,2.5V21.5z"/>
</g>
<g id="SVGRepo_iconCarrier_6_">
	<title></title>
	<g id="页面-1">
		<g id="导航图标" transform="translate(-325.000000, -80.000000)">
			<g id="编组" transform="translate(325.000000, 80.000000)">
				<polygon id="路径" class="st12" points="24.88,-1 -0.88,-1 -0.88,24.76 24.88,24.76 				"/>
				<polygon id="路径_1_" class="st13" points="22.73,6.51 12,1.15 1.27,6.51 1.27,17.25 12,22.61 22.73,17.25 				"/>
				<line id="路径_2_" class="st14" x1="1.27" y1="6.51" x2="12" y2="11.88"/>
				<line id="路径_3_" class="st14" x1="12" y1="22.61" x2="12" y2="11.88"/>
				<line id="路径_4_" class="st14" x1="22.73" y1="6.51" x2="12" y2="11.88"/>
				<line id="路径_5_" class="st14" x1="17.37" y1="3.83" x2="6.63" y2="9.2"/>
			</g>
		</g>
	</g>
</g>
<g class="st0">
	<path class="st15" d="M-10.92,4.39c0-0.49-0.4-0.89-0.89-0.89h-4.92c-0.49,0-0.89,0.4-0.89,0.89v7.16c0,0.49,0.4,0.89,0.89,0.89
		h4.92c0.49,0,0.89-0.4,0.89-0.89V4.39z"/>
	<path class="st15" d="M-10.92,19.6c0,0.49-0.4,0.89-0.89,0.89h-4.92c-0.49,0-0.89-0.4-0.89-0.89v-2.68c0-0.49,0.4-0.89,0.89-0.89
		h4.92c0.49,0,0.89,0.4,0.89,0.89V19.6z"/>
	<path class="st15" d="M-27.92,19.61c0,0.49,0.4,0.89,0.89,0.89h4.92c0.49,0,0.89-0.4,0.89-0.89v-7.16c0-0.49-0.4-0.89-0.89-0.89
		h-4.92c-0.49,0-0.89,0.4-0.89,0.89V19.61z"/>
	<path class="st15" d="M-27.92,4.39c0-0.49,0.4-0.89,0.89-0.89h4.92c0.49,0,0.89,0.4,0.89,0.89v2.68c0,0.49-0.4,0.89-0.89,0.89
		h-4.92c-0.49,0-0.89-0.4-0.89-0.89V4.39z"/>
	<path class="st16" d="M-10.92,4.39c0-0.49-0.4-0.89-0.89-0.89h-4.92c-0.49,0-0.89,0.4-0.89,0.89v7.16c0,0.49,0.4,0.89,0.89,0.89
		h4.92c0.49,0,0.89-0.4,0.89-0.89V4.39z"/>
	<path class="st16" d="M-10.92,19.6c0,0.49-0.4,0.89-0.89,0.89h-4.92c-0.49,0-0.89-0.4-0.89-0.89v-2.68c0-0.49,0.4-0.89,0.89-0.89
		h4.92c0.49,0,0.89,0.4,0.89,0.89V19.6z"/>
	<path class="st16" d="M-27.92,19.61c0,0.49,0.4,0.89,0.89,0.89h4.92c0.49,0,0.89-0.4,0.89-0.89v-7.16c0-0.49-0.4-0.89-0.89-0.89
		h-4.92c-0.49,0-0.89,0.4-0.89,0.89V19.61z"/>
	<path class="st16" d="M-27.92,4.39c0-0.49,0.4-0.89,0.89-0.89h4.92c0.49,0,0.89,0.4,0.89,0.89v2.68c0,0.49-0.4,0.89-0.89,0.89
		h-4.92c-0.49,0-0.89-0.4-0.89-0.89V4.39z"/>
</g>
</svg>
